<svg width="199" height="205" viewBox="0 0 199 205" fill="none" xmlns="http://www.w3.org/2000/svg">
<g clip-path="url(#clip0_2376_1861)">
<path d="M160.88 55.847C164.805 59.4262 165.512 65.0447 165.512 65.0447C165.512 65.0447 159.853 64.8578 155.928 61.2787C152.004 57.6996 151.297 52.0811 151.297 52.0811C151.297 52.0811 156.956 52.2679 160.88 55.847Z" fill="url(#paint0_linear_2376_1861)"/>
<path d="M133.283 187.739C129.903 192.073 129.7 197.192 129.745 197.208C129.733 197.273 136.834 195.287 140.023 190.505C143.212 185.784 141.66 180.893 141.705 180.905C141.689 180.954 136.659 183.44 133.283 187.734V187.739Z" fill="url(#paint1_linear_2376_1861)"/>
<path d="M138.261 202.749C132.029 201.689 129.701 196.976 129.705 197.021C129.778 197.045 136.457 195.116 142.214 195.794C148.027 196.501 151.44 200.113 151.444 200.149C151.525 200.169 144.566 203.834 138.265 202.749H138.261Z" fill="url(#paint2_linear_2376_1861)"/>
<path d="M145.61 182.326C143.286 187.08 144.123 192.048 144.164 192.06C144.16 192.125 150.4 189.026 152.504 183.866C154.613 178.764 152.212 174.295 152.257 174.299C152.244 174.348 147.934 177.614 145.61 182.326Z" fill="url(#paint3_linear_2376_1861)"/>
<path d="M153.223 195.985C147.161 196.005 144.078 191.841 144.086 191.882C144.155 191.894 150.009 188.92 155.595 188.603C161.238 188.307 165.191 191.22 165.195 191.256C165.272 191.26 159.349 195.981 153.223 195.989V195.985Z" fill="url(#paint4_linear_2376_1861)"/>
<path d="M156.247 175.002C154.93 179.999 156.685 184.658 156.722 184.662C156.722 184.727 162.072 180.673 163.141 175.31C164.221 170.005 161.097 166.08 161.138 166.076C161.138 166.125 157.567 170.041 156.243 174.998L156.247 175.002Z" fill="url(#paint5_linear_2376_1861)"/>
<path d="M166.105 186.926C160.32 187.974 156.607 184.468 156.615 184.509C156.676 184.509 161.677 180.641 166.995 179.374C172.366 178.118 176.721 180.259 176.729 180.296C176.802 180.288 171.951 185.882 166.105 186.926Z" fill="url(#paint6_linear_2376_1861)"/>
<path d="M165.126 166.073C164.757 171.151 167.312 175.364 167.353 175.36C167.361 175.425 171.777 170.574 171.866 165.175C171.976 159.828 168.251 156.55 168.291 156.546C168.295 156.595 165.508 161.031 165.126 166.073Z" fill="url(#paint7_linear_2376_1861)"/>
<path d="M176.823 175.936C171.419 177.951 167.207 175.189 167.219 175.225C167.276 175.217 171.387 170.602 176.331 168.445C181.324 166.292 185.947 167.608 185.959 167.644C186.024 167.628 182.287 173.913 176.823 175.936Z" fill="url(#paint8_linear_2376_1861)"/>
<path d="M172.176 155.839C172.7 160.852 175.934 164.501 175.966 164.488C175.983 164.549 179.428 159.061 178.599 153.775C177.79 148.543 173.598 145.996 173.634 145.983C173.647 146.032 171.672 150.863 172.176 155.835V155.839Z" fill="url(#paint9_linear_2376_1861)"/>
<path d="M185.289 163.392C180.373 166.3 175.79 164.346 175.811 164.383C175.863 164.363 179.053 159.163 183.517 156.185C188.027 153.203 192.776 153.67 192.796 153.702C192.857 153.674 190.265 160.471 185.293 163.396L185.289 163.392Z" fill="url(#paint10_linear_2376_1861)"/>
<path d="M177.314 144.602C178.671 149.408 182.457 152.398 182.485 152.382C182.51 152.439 184.951 146.471 183.257 141.441C181.592 136.457 177.062 134.706 177.094 134.689C177.115 134.734 175.981 139.829 177.314 144.606V144.602Z" fill="url(#paint11_linear_2376_1861)"/>
<path d="M191.425 149.659C187.102 153.373 182.296 152.276 182.32 152.304C182.365 152.276 184.604 146.633 188.479 142.92C192.396 139.194 197.128 138.8 197.153 138.833C197.21 138.796 195.8 145.922 191.425 149.659Z" fill="url(#paint12_linear_2376_1861)"/>
<path d="M180.471 132.674C182.599 137.155 186.808 139.401 186.833 139.385C186.865 139.438 188.263 133.149 185.764 128.502C183.302 123.895 178.569 122.977 178.598 122.952C178.626 122.993 178.366 128.225 180.467 132.674H180.471Z" fill="url(#paint13_linear_2376_1861)"/>
<path d="M195.133 135.116C191.517 139.536 186.626 139.312 186.654 139.341C186.695 139.308 187.946 133.373 191.123 129.022C194.341 124.655 198.907 123.412 198.936 123.436C198.984 123.391 198.797 130.667 195.133 135.116Z" fill="url(#paint14_linear_2376_1861)"/>
<path d="M181.568 120.352C184.408 124.395 188.901 125.853 188.925 125.829C188.97 125.878 189.283 119.426 186.045 115.274C182.848 111.155 178.058 111.09 178.082 111.065C178.119 111.102 178.765 116.339 181.568 120.356V120.352Z" fill="url(#paint15_linear_2376_1861)"/>
<path d="M196.335 120.129C193.54 125.139 188.71 125.797 188.742 125.817C188.775 125.776 189.01 119.703 191.379 114.824C193.78 109.92 198.029 107.869 198.062 107.889C198.107 107.84 199.175 115.08 196.335 120.129Z" fill="url(#paint16_linear_2376_1861)"/>
<path d="M180.537 107.95C184.019 111.456 188.662 112.086 188.682 112.061C188.735 112.102 187.935 105.651 184.019 102.096C180.155 98.5655 175.443 99.3537 175.467 99.3212C175.512 99.3537 177.096 104.464 180.537 107.95Z" fill="url(#paint17_linear_2376_1861)"/>
<path d="M194.946 105.073C193.086 110.549 188.466 112.06 188.503 112.081C188.531 112.036 187.715 105.975 189.161 100.689C190.636 95.3755 194.41 92.5642 194.447 92.5804C194.483 92.5235 196.848 99.5558 194.946 105.073Z" fill="url(#paint18_linear_2376_1861)"/>
<path d="M177.294 95.7742C181.348 98.6546 186.004 98.4515 186.02 98.423C186.081 98.4555 184.127 92.1667 179.605 89.2944C175.141 86.4425 170.66 88.0554 170.676 88.0229C170.729 88.0472 173.284 92.9061 177.294 95.7742Z" fill="url(#paint19_linear_2376_1861)"/>
<path d="M190.87 90.33C190.062 96.1313 185.804 98.4632 185.849 98.4754C185.869 98.4307 183.976 92.5278 184.378 86.9743C184.805 81.3883 187.949 77.8945 187.994 77.9067C188.027 77.8457 191.719 84.4839 190.874 90.33H190.87Z" fill="url(#paint20_linear_2376_1861)"/>
<path d="M171.77 84.1311C176.332 86.3167 180.85 85.2848 180.862 85.2523C180.931 85.2767 177.787 79.3088 172.725 77.1963C167.728 75.0959 163.624 77.4928 163.641 77.4603C163.702 77.4766 167.26 81.9495 171.77 84.1311Z" fill="url(#paint21_linear_2376_1861)"/>
<path d="M184.029 76.2737C184.391 82.2457 180.653 85.3332 180.702 85.3414C180.714 85.2926 177.712 79.7025 176.948 74.0312C176.209 68.3233 178.561 64.2445 178.61 64.2486C178.634 64.1836 183.7 70.2449 184.029 76.2737Z" fill="url(#paint22_linear_2376_1861)"/>
<path d="M163.883 73.3368C168.88 74.7709 173.113 72.9387 173.121 72.9062C173.199 72.9184 168.827 67.438 163.298 66.1461C157.838 64.8583 154.271 67.9742 154.283 67.9417C154.356 67.9499 158.947 71.9068 163.883 73.3409V73.3368Z" fill="url(#paint23_linear_2376_1861)"/>
<path d="M174.337 63.2773C175.994 69.2574 172.935 73.0152 172.988 73.0193C172.992 72.9705 168.844 67.8436 166.801 62.2169C164.778 56.5456 166.171 51.9996 166.22 51.9996C166.236 51.9346 172.708 57.2403 174.333 63.2773H174.337Z" fill="url(#paint24_linear_2376_1861)"/>
<path d="M109.77 198.78L109.867 197.683C118.951 198.503 128.006 197.492 136.777 194.677C145.325 191.93 153.243 187.596 160.304 181.794C174.957 169.753 184.411 152.568 186.918 133.405C188.969 117.715 187.917 103.732 183.789 91.8451C179.357 79.0805 171.464 69.0948 160.324 62.16L160.905 61.2256C172.26 68.2944 180.312 78.4752 184.829 91.4835C189.014 103.533 190.086 117.683 188.01 133.547C185.467 152.987 175.875 170.423 161.007 182.643C153.836 188.534 145.8 192.934 137.119 195.725C128.201 198.589 119 199.617 109.77 198.78Z" fill="url(#paint25_linear_2376_1861)"/>
<path d="M38.063 55.847C34.1385 59.4262 33.4316 65.0447 33.4316 65.0447C33.4316 65.0447 39.0908 64.8578 43.0152 61.2787C46.9396 57.6996 47.6425 52.0811 47.6425 52.0811C47.6425 52.0811 41.9833 52.2679 38.0589 55.847H38.063Z" fill="url(#paint26_linear_2376_1861)"/>
<path d="M65.6588 187.739C69.0389 192.073 69.242 197.192 69.1973 197.208C69.2095 197.273 62.1082 195.287 58.9191 190.505C55.7299 185.784 57.2818 180.893 57.2372 180.905C57.2534 180.954 62.2829 183.44 65.6588 187.734V187.739Z" fill="url(#paint27_linear_2376_1861)"/>
<path d="M60.6818 202.749C66.9137 201.689 69.2416 196.976 69.2375 197.021C69.1644 197.045 62.4855 195.116 56.7289 195.794C50.9154 196.501 47.5028 200.113 47.4988 200.149C47.4175 200.169 54.3767 203.834 60.6777 202.749H60.6818Z" fill="url(#paint28_linear_2376_1861)"/>
<path d="M53.3326 182.326C55.6564 187.08 54.8195 192.048 54.7789 192.06C54.7829 192.125 48.5428 189.026 46.4384 183.866C44.33 178.764 46.7309 174.295 46.6862 174.299C46.6984 174.348 51.0088 177.614 53.3326 182.326Z" fill="url(#paint29_linear_2376_1861)"/>
<path d="M45.7192 195.985C51.7805 196.005 54.864 191.841 54.8559 191.882C54.7868 191.894 48.9327 188.92 43.3467 188.603C37.7038 188.307 33.7509 191.22 33.7468 191.256C33.6697 191.26 39.5929 195.981 45.7192 195.989V195.985Z" fill="url(#paint30_linear_2376_1861)"/>
<path d="M42.6938 175.002C44.0101 179.999 42.2551 184.658 42.2185 184.662C42.2185 184.727 36.8681 180.673 35.7997 175.31C34.719 170.005 37.8431 166.08 37.8025 166.076C37.8025 166.125 41.3735 170.041 42.6979 174.998L42.6938 175.002Z" fill="url(#paint31_linear_2376_1861)"/>
<path d="M32.8373 186.926C38.6224 187.974 42.3356 184.468 42.3274 184.509C42.2665 184.509 37.2655 180.641 31.9476 179.374C26.5769 178.118 22.2218 180.259 22.2137 180.296C22.1406 180.288 26.9913 185.882 32.8373 186.926Z" fill="url(#paint32_linear_2376_1861)"/>
<path d="M33.8164 166.073C34.1861 171.151 31.6307 175.364 31.5901 175.36C31.582 175.425 27.166 170.574 27.0766 165.175C26.9669 159.828 30.6923 156.55 30.6516 156.546C30.6476 156.595 33.4345 161.031 33.8164 166.073Z" fill="url(#paint33_linear_2376_1861)"/>
<path d="M22.12 175.936C27.5232 177.951 31.736 175.189 31.7238 175.225C31.667 175.217 27.5557 170.602 22.6115 168.445C17.6186 166.292 12.9954 167.608 12.9833 167.644C12.9183 167.628 16.6558 173.913 22.12 175.936Z" fill="url(#paint34_linear_2376_1861)"/>
<path d="M26.7684 155.839C26.2443 160.852 23.0105 164.501 22.978 164.488C22.9618 164.549 19.5167 159.061 20.3455 153.775C21.1539 148.543 25.3465 145.996 25.3099 145.983C25.2977 146.032 27.2721 150.863 26.7684 155.835V155.839Z" fill="url(#paint35_linear_2376_1861)"/>
<path d="M13.6493 163.392C18.565 166.3 23.1475 164.346 23.1272 164.383C23.0744 164.363 19.8853 159.163 15.4206 156.185C10.9111 153.203 6.16199 153.67 6.14168 153.702C6.08074 153.674 8.67265 160.471 13.6452 163.396L13.6493 163.392Z" fill="url(#paint36_linear_2376_1861)"/>
<path d="M21.6293 144.602C20.2724 149.408 16.4861 152.398 16.4577 152.382C16.4333 152.439 13.9917 146.471 15.6858 141.441C17.3514 136.457 21.8812 134.706 21.8487 134.689C21.8284 134.734 22.9618 139.829 21.6293 144.606V144.602Z" fill="url(#paint37_linear_2376_1861)"/>
<path d="M7.51891 149.659C11.8415 153.373 16.6475 152.276 16.6231 152.304C16.5784 152.276 14.3399 146.633 10.4643 142.92C6.54796 139.194 1.81102 138.8 1.79071 138.833C1.73383 138.796 3.14354 145.922 7.51891 149.659Z" fill="url(#paint38_linear_2376_1861)"/>
<path d="M18.4721 132.674C16.3433 137.155 12.1345 139.401 12.1101 139.385C12.0776 139.438 10.6801 133.149 13.1786 128.502C15.6405 123.895 20.3734 122.977 20.3449 122.952C20.3165 122.993 20.5765 128.225 18.4762 132.674H18.4721Z" fill="url(#paint39_linear_2376_1861)"/>
<path d="M3.80626 135.116C7.42194 139.536 12.3133 139.312 12.2848 139.341C12.2442 139.308 10.9929 133.373 7.81601 129.022C4.59846 124.651 0.0321467 123.412 0.00370883 123.436C-0.0450419 123.391 0.141836 130.667 3.80626 135.116Z" fill="url(#paint40_linear_2376_1861)"/>
<path d="M17.3721 120.352C14.5323 124.395 10.0391 125.853 10.0148 125.829C9.97008 125.878 9.65726 119.426 12.8951 115.274C16.0924 111.155 20.8821 111.09 20.8577 111.065C20.8212 111.102 20.1752 116.339 17.3721 120.356V120.352Z" fill="url(#paint41_linear_2376_1861)"/>
<path d="M2.60464 120.129C5.39968 125.139 10.2301 125.797 10.1976 125.817C10.1651 125.776 9.92943 119.703 7.56096 114.824C5.15999 109.92 0.910556 107.869 0.878055 107.889C0.833367 107.84 -0.235086 115.08 2.60464 120.129Z" fill="url(#paint42_linear_2376_1861)"/>
<path d="M18.4076 107.95C14.926 111.456 10.2825 112.086 10.2622 112.061C10.2093 112.102 11.0097 105.651 14.926 102.096C18.7895 98.5655 23.502 99.3537 23.4777 99.3212C23.433 99.3537 21.8486 104.464 18.4076 107.95Z" fill="url(#paint43_linear_2376_1861)"/>
<path d="M3.99661 105.073C5.85726 110.549 10.4764 112.06 10.4398 112.081C10.4114 112.036 11.228 105.975 9.78169 100.689C8.30698 95.3755 4.53286 92.5642 4.4963 92.5804C4.45974 92.5235 2.09533 99.5558 3.99661 105.073Z" fill="url(#paint44_linear_2376_1861)"/>
<path d="M21.6496 95.7742C17.5952 98.6546 12.9395 98.4515 12.9233 98.423C12.8623 98.4555 14.8164 92.1667 19.338 89.2944C23.8028 86.4425 28.2838 88.0554 28.2675 88.0229C28.2147 88.0472 25.6594 92.9061 21.6496 95.7742Z" fill="url(#paint45_linear_2376_1861)"/>
<path d="M8.07306 90.33C8.88151 96.1313 13.1391 98.4632 13.0944 98.4754C13.0741 98.4307 14.9672 92.5278 14.565 86.9743C14.1385 81.3883 10.994 77.8945 10.9494 77.9067C10.9169 77.8457 7.22399 84.4839 8.069 90.33H8.07306Z" fill="url(#paint46_linear_2376_1861)"/>
<path d="M27.1752 84.1311C22.6129 86.3167 18.0953 85.2848 18.0831 85.2523C18.0141 85.2767 21.1585 79.3088 26.2205 77.1963C31.2174 75.0959 35.3206 77.4928 35.3043 77.4603C35.2434 77.4766 31.6846 81.9495 27.1752 84.1311Z" fill="url(#paint47_linear_2376_1861)"/>
<path d="M14.9094 76.2737C14.5478 82.2457 18.2854 85.3332 18.2366 85.3414C18.2245 85.2926 21.2267 79.7025 21.9904 74.0312C22.7298 68.3233 20.3776 64.2445 20.3289 64.2486C20.3045 64.1836 15.2385 70.2449 14.9094 76.2737Z" fill="url(#paint48_linear_2376_1861)"/>
<path d="M35.0596 73.3368C30.0626 74.7709 25.8294 72.9387 25.8213 72.9062C25.7441 72.9184 30.1154 67.438 35.6446 66.1461C41.1047 64.8583 44.6716 67.9742 44.6594 67.9417C44.5863 67.9499 39.9956 71.9068 35.0596 73.3409V73.3368Z" fill="url(#paint49_linear_2376_1861)"/>
<path d="M24.6061 63.2773C22.9486 69.2574 26.0077 73.0152 25.9549 73.0193C25.9508 72.9705 30.0987 67.8436 32.1422 62.2169C34.1653 56.5456 32.7719 51.9996 32.7191 51.9996C32.7028 51.9346 26.2312 57.2403 24.6061 63.2773Z" fill="url(#paint50_linear_2376_1861)"/>
<path d="M89.173 198.78L89.0755 197.683C79.9916 198.503 70.9362 197.492 62.1651 194.677C53.6175 191.93 45.6996 187.596 38.6389 181.794C23.9852 169.753 14.5316 152.568 12.025 133.405C9.97345 117.715 11.0256 103.732 15.1532 91.8451C19.5855 79.0805 27.479 69.0948 38.6185 62.16L38.0376 61.2256C26.6827 68.2944 18.6308 78.4752 14.1132 91.4835C9.92876 103.533 8.85624 117.683 10.9322 133.547C13.4754 152.987 23.0671 170.423 37.936 182.643C45.1064 188.534 53.1422 192.934 61.8239 195.725C70.7412 198.589 79.9429 199.617 89.173 198.78Z" fill="url(#paint51_linear_2376_1861)"/>
<path d="M94.6775 192.768L86.3574 198.886L94.6775 205L102.994 198.886L94.6775 192.768Z" fill="url(#paint52_linear_2376_1861)"/>
<path d="M103.885 192.768L95.5645 198.886L103.885 205L112.205 198.886L103.885 192.768Z" fill="url(#paint53_linear_2376_1861)"/>
</g>
<path d="M43.8 105.96H50.44V108.12H46.18V118.74H43.8V105.96ZM59.68 106H62.12V112.96H59.68V106ZM56.36 114.12V116.7H65.54V114.12H56.36ZM54.06 111.9H68V118.92H54.06V111.9ZM60.82 107.78H69.32V110.02H60.82V107.78ZM57.38 120.44L59.66 120.22C59.7667 120.66 59.86 121.14 59.94 121.66C60.02 122.167 60.0867 122.653 60.14 123.12C60.1933 123.587 60.22 124 60.22 124.36L57.8 124.66C57.8 124.313 57.78 123.893 57.74 123.4C57.7133 122.92 57.6667 122.42 57.6 121.9C57.5467 121.38 57.4733 120.893 57.38 120.44ZM61.5 120.46L63.7 119.96C63.9 120.387 64.1 120.847 64.3 121.34C64.5133 121.82 64.7 122.287 64.86 122.74C65.02 123.193 65.14 123.6 65.22 123.96L62.88 124.56C62.8133 124.213 62.7067 123.8 62.56 123.32C62.4267 122.84 62.2667 122.353 62.08 121.86C61.8933 121.353 61.7 120.887 61.5 120.46ZM65.58 120.34L67.72 119.56C68.0533 119.973 68.3867 120.433 68.72 120.94C69.0667 121.447 69.3867 121.947 69.68 122.44C69.9733 122.92 70.2 123.36 70.36 123.76L68.04 124.66C67.8933 124.273 67.6867 123.827 67.42 123.32C67.1533 122.827 66.8533 122.32 66.52 121.8C66.2 121.267 65.8867 120.78 65.58 120.34ZM54.1 119.7L56.4 120.3C56.12 121.087 55.7467 121.887 55.28 122.7C54.8133 123.513 54.32 124.187 53.8 124.72L51.58 123.64C52.0733 123.2 52.5467 122.62 53 121.9C53.4533 121.18 53.82 120.447 54.1 119.7ZM71.9 110.14H78.42V112.36H71.9V110.14ZM74.36 106H76.58V124.78H74.36V106ZM74.36 111.68L75.72 112.12C75.5733 112.92 75.3933 113.747 75.18 114.6C74.9667 115.453 74.72 116.293 74.44 117.12C74.1733 117.933 73.88 118.693 73.56 119.4C73.24 120.107 72.9 120.72 72.54 121.24C72.4333 120.92 72.2667 120.553 72.04 120.14C71.8267 119.727 71.6267 119.38 71.44 119.1C71.7733 118.66 72.0867 118.147 72.38 117.56C72.6733 116.973 72.9467 116.347 73.2 115.68C73.4667 115.013 73.6933 114.34 73.88 113.66C74.08 112.967 74.24 112.307 74.36 111.68ZM76.48 113.18C76.5867 113.313 76.7533 113.547 76.98 113.88C77.2067 114.2 77.4467 114.547 77.7 114.92C77.9533 115.293 78.1867 115.647 78.4 115.98C78.6133 116.3 78.76 116.527 78.84 116.66L77.6 118.52C77.4933 118.227 77.3533 117.887 77.18 117.5C77.0067 117.1 76.8133 116.693 76.6 116.28C76.4 115.853 76.2 115.46 76 115.1C75.8133 114.727 75.66 114.427 75.54 114.2L76.48 113.18ZM80.64 110.62H87.94V112.58H80.64V110.62ZM84.22 108.1C83.86 108.633 83.4 109.18 82.84 109.74C82.2933 110.287 81.6867 110.807 81.02 111.3C80.3667 111.78 79.6933 112.193 79 112.54C78.88 112.233 78.7067 111.887 78.48 111.5C78.2533 111.113 78.0467 110.793 77.86 110.54C78.58 110.22 79.2667 109.82 79.92 109.34C80.5867 108.847 81.1867 108.313 81.72 107.74C82.2667 107.167 82.7133 106.6 83.06 106.04H85.24C85.7067 106.68 86.2333 107.287 86.82 107.86C87.42 108.42 88.0533 108.927 88.72 109.38C89.4 109.82 90.0867 110.173 90.78 110.44C90.5667 110.72 90.3467 111.06 90.12 111.46C89.8933 111.847 89.7 112.207 89.54 112.54C88.9 112.22 88.24 111.82 87.56 111.34C86.8933 110.847 86.2667 110.32 85.68 109.76C85.1067 109.2 84.62 108.647 84.22 108.1ZM81.16 115.7V117.58H87.42V115.7H81.16ZM79.08 113.86H89.58V119.42H79.08V113.86ZM83.14 111.86H85.3V116.98C85.3 117.713 85.22 118.46 85.06 119.22C84.9133 119.967 84.62 120.693 84.18 121.4C83.74 122.107 83.1067 122.76 82.28 123.36C81.4533 123.96 80.38 124.473 79.06 124.9C78.9933 124.727 78.88 124.527 78.72 124.3C78.5733 124.073 78.4133 123.847 78.24 123.62C78.0667 123.407 77.9133 123.24 77.78 123.12C78.9933 122.733 79.96 122.307 80.68 121.84C81.4 121.373 81.9333 120.873 82.28 120.34C82.6267 119.793 82.8533 119.233 82.96 118.66C83.08 118.087 83.14 117.5 83.14 116.9V111.86ZM85.46 118.22C85.8867 119.22 86.3533 120.02 86.86 120.62C87.3667 121.22 87.9333 121.693 88.56 122.04C89.2 122.373 89.9 122.653 90.66 122.88C90.38 123.12 90.1067 123.42 89.84 123.78C89.5867 124.153 89.3933 124.52 89.26 124.88C88.4067 124.547 87.62 124.14 86.9 123.66C86.1933 123.18 85.5533 122.547 84.98 121.76C84.4067 120.96 83.8933 119.927 83.44 118.66L85.46 118.22ZM99.88 107.26C99.8 107.54 99.7133 107.873 99.62 108.26C99.54 108.633 99.48 108.933 99.44 109.16C99.3467 109.613 99.2267 110.167 99.08 110.82C98.9467 111.473 98.8 112.167 98.64 112.9C98.48 113.62 98.3133 114.32 98.14 115C97.9533 115.693 97.7333 116.453 97.48 117.28C97.24 118.107 96.9733 118.94 96.68 119.78C96.4 120.62 96.1133 121.427 95.82 122.2C95.5267 122.973 95.24 123.66 94.96 124.26L92.16 123.32C92.4667 122.813 92.78 122.193 93.1 121.46C93.4333 120.727 93.76 119.947 94.08 119.12C94.4 118.28 94.6933 117.447 94.96 116.62C95.2267 115.78 95.4533 115.013 95.64 114.32C95.76 113.84 95.88 113.353 96 112.86C96.12 112.367 96.2267 111.887 96.32 111.42C96.4267 110.953 96.5133 110.52 96.58 110.12C96.66 109.707 96.72 109.353 96.76 109.06C96.8 108.687 96.8267 108.313 96.84 107.94C96.8533 107.567 96.8467 107.26 96.82 107.02L99.88 107.26ZM94.78 110.26C95.5933 110.26 96.44 110.22 97.32 110.14C98.2 110.06 99.0867 109.947 99.98 109.8C100.873 109.64 101.76 109.46 102.64 109.26V111.76C101.813 111.96 100.933 112.127 100 112.26C99.0667 112.393 98.1467 112.5 97.24 112.58C96.3333 112.647 95.5 112.68 94.74 112.68C94.26 112.68 93.8267 112.673 93.44 112.66C93.0533 112.633 92.68 112.613 92.32 112.6L92.26 110.1C92.78 110.153 93.2267 110.193 93.6 110.22C93.9733 110.247 94.3667 110.26 94.78 110.26ZM101.06 113.32C101.62 113.253 102.24 113.207 102.92 113.18C103.6 113.14 104.26 113.12 104.9 113.12C105.473 113.12 106.053 113.133 106.64 113.16C107.24 113.187 107.833 113.233 108.42 113.3L108.36 115.7C107.867 115.633 107.32 115.573 106.72 115.52C106.133 115.467 105.533 115.44 104.92 115.44C104.227 115.44 103.567 115.46 102.94 115.5C102.313 115.527 101.687 115.58 101.06 115.66V113.32ZM102.14 118.34C102.06 118.62 101.993 118.913 101.94 119.22C101.887 119.527 101.86 119.787 101.86 120C101.86 120.227 101.907 120.433 102 120.62C102.093 120.807 102.24 120.973 102.44 121.12C102.64 121.253 102.913 121.36 103.26 121.44C103.62 121.507 104.067 121.54 104.6 121.54C105.267 121.54 105.947 121.507 106.64 121.44C107.333 121.373 108.04 121.273 108.76 121.14L108.66 123.68C108.1 123.76 107.48 123.827 106.8 123.88C106.12 123.947 105.38 123.98 104.58 123.98C102.9 123.98 101.613 123.7 100.72 123.14C99.84 122.58 99.4 121.8 99.4 120.8C99.4 120.333 99.4333 119.867 99.5 119.4C99.58 118.933 99.66 118.507 99.74 118.12L102.14 118.34ZM106.28 107.84C106.453 108.08 106.633 108.367 106.82 108.7C107.02 109.033 107.213 109.367 107.4 109.7C107.587 110.033 107.74 110.327 107.86 110.58L106.26 111.28C106.127 111 105.973 110.693 105.8 110.36C105.627 110.027 105.447 109.693 105.26 109.36C105.073 109.027 104.887 108.74 104.7 108.5L106.28 107.84ZM108.64 106.94C108.827 107.18 109.02 107.473 109.22 107.82C109.42 108.153 109.613 108.487 109.8 108.82C110 109.14 110.153 109.42 110.26 109.66L108.68 110.34C108.467 109.913 108.213 109.44 107.92 108.92C107.627 108.4 107.34 107.953 107.06 107.58L108.64 106.94ZM126.56 107.1C126.533 107.313 126.513 107.54 126.5 107.78C126.487 108.007 126.473 108.233 126.46 108.46C126.447 108.647 126.44 108.933 126.44 109.32C126.453 109.693 126.46 110.12 126.46 110.6C126.46 111.067 126.46 111.547 126.46 112.04C126.46 112.52 126.46 112.967 126.46 113.38C126.473 113.793 126.48 114.113 126.48 114.34C126.48 115.527 126.433 116.607 126.34 117.58C126.26 118.54 126.073 119.427 125.78 120.24C125.5 121.053 125.067 121.807 124.48 122.5C123.907 123.193 123.12 123.86 122.12 124.5L119.82 122.68C120.193 122.52 120.607 122.293 121.06 122C121.513 121.693 121.873 121.387 122.14 121.08C122.527 120.68 122.84 120.26 123.08 119.82C123.32 119.38 123.507 118.893 123.64 118.36C123.787 117.827 123.88 117.233 123.92 116.58C123.973 115.927 124 115.173 124 114.32C124 113.96 124 113.507 124 112.96C124 112.413 123.993 111.847 123.98 111.26C123.967 110.673 123.953 110.133 123.94 109.64C123.927 109.133 123.907 108.747 123.88 108.48C123.867 108.227 123.833 107.973 123.78 107.72C123.74 107.467 123.7 107.26 123.66 107.1H126.56ZM118.68 111C119 111.04 119.327 111.08 119.66 111.12C119.993 111.147 120.327 111.173 120.66 111.2C121.007 111.213 121.353 111.22 121.7 111.22C122.567 111.22 123.473 111.2 124.42 111.16C125.367 111.12 126.28 111.06 127.16 110.98C128.04 110.887 128.807 110.78 129.46 110.66L129.44 113.26C128.813 113.327 128.073 113.393 127.22 113.46C126.367 113.513 125.467 113.56 124.52 113.6C123.587 113.627 122.667 113.64 121.76 113.64C121.48 113.64 121.16 113.633 120.8 113.62C120.44 113.607 120.08 113.593 119.72 113.58C119.36 113.567 119.013 113.553 118.68 113.54V111ZM116.62 107.44C116.54 107.68 116.453 107.96 116.36 108.28C116.267 108.587 116.193 108.847 116.14 109.06C116.02 109.607 115.893 110.267 115.76 111.04C115.627 111.8 115.513 112.593 115.42 113.42C115.327 114.247 115.28 115.06 115.28 115.86C115.28 116.647 115.347 117.347 115.48 117.96C115.613 117.653 115.767 117.287 115.94 116.86C116.113 116.42 116.28 116.013 116.44 115.64L117.68 116.44C117.493 117.013 117.307 117.607 117.12 118.22C116.947 118.82 116.793 119.393 116.66 119.94C116.527 120.473 116.413 120.933 116.32 121.32C116.28 121.467 116.247 121.64 116.22 121.84C116.207 122.027 116.2 122.18 116.2 122.3C116.2 122.393 116.2 122.52 116.2 122.68C116.213 122.84 116.227 122.987 116.24 123.12L114.02 123.34C113.873 122.94 113.707 122.393 113.52 121.7C113.347 120.993 113.193 120.22 113.06 119.38C112.94 118.527 112.88 117.687 112.88 116.86C112.88 115.767 112.913 114.713 112.98 113.7C113.06 112.687 113.153 111.767 113.26 110.94C113.367 110.1 113.453 109.413 113.52 108.88C113.573 108.6 113.607 108.307 113.62 108C113.633 107.68 113.647 107.393 113.66 107.14L116.62 107.44ZM138.2 124.84H131.56V122.68H135.82V112.06H138.2V124.84ZM160.024 112.072C159.917 112.904 159.779 113.773 159.608 114.68C159.448 115.587 159.24 116.467 158.984 117.32C158.664 118.419 158.307 119.336 157.912 120.072C157.528 120.808 157.112 121.363 156.664 121.736C156.216 122.109 155.747 122.296 155.256 122.296C154.787 122.296 154.333 122.125 153.896 121.784C153.459 121.443 153.101 120.952 152.824 120.312C152.547 119.661 152.408 118.899 152.408 118.024C152.408 117.149 152.584 116.323 152.936 115.544C153.299 114.765 153.795 114.077 154.424 113.48C155.064 112.872 155.811 112.392 156.664 112.04C157.517 111.688 158.429 111.512 159.4 111.512C160.339 111.512 161.181 111.667 161.928 111.976C162.685 112.285 163.331 112.712 163.864 113.256C164.397 113.789 164.808 114.413 165.096 115.128C165.384 115.832 165.528 116.589 165.528 117.4C165.528 118.52 165.288 119.507 164.808 120.36C164.339 121.213 163.656 121.907 162.76 122.44C161.875 122.973 160.797 123.325 159.528 123.496L158.776 122.312C159.032 122.28 159.277 122.248 159.512 122.216C159.747 122.184 159.96 122.147 160.152 122.104C160.664 121.987 161.16 121.805 161.64 121.56C162.131 121.304 162.568 120.984 162.952 120.6C163.336 120.205 163.64 119.741 163.864 119.208C164.099 118.664 164.216 118.045 164.216 117.352C164.216 116.701 164.109 116.099 163.896 115.544C163.683 114.979 163.368 114.483 162.952 114.056C162.536 113.629 162.029 113.293 161.432 113.048C160.835 112.803 160.152 112.68 159.384 112.68C158.509 112.68 157.715 112.84 157 113.16C156.296 113.48 155.693 113.901 155.192 114.424C154.701 114.936 154.323 115.501 154.056 116.12C153.789 116.728 153.656 117.325 153.656 117.912C153.656 118.584 153.741 119.139 153.912 119.576C154.093 120.003 154.307 120.317 154.552 120.52C154.808 120.723 155.059 120.824 155.304 120.824C155.56 120.824 155.821 120.701 156.088 120.456C156.355 120.2 156.627 119.795 156.904 119.24C157.181 118.675 157.453 117.944 157.72 117.048C157.955 116.28 158.152 115.464 158.312 114.6C158.483 113.736 158.605 112.888 158.68 112.056L160.024 112.072ZM53.16 143.328H59.208V144.416H53.16V143.328ZM53.192 147.2H59.24V148.304H53.192V147.2ZM53.176 151.088H59.224V152.192H53.176V151.088ZM52.568 139.504H59.816V153.12H58.6V140.64H53.736V153.168H52.568V139.504ZM45.832 141.984H51.88V143.136H45.832V141.984ZM48.424 138.56H49.592V153.264H48.424V138.56ZM48.376 142.704L49.16 142.96C49.0107 143.611 48.8293 144.283 48.616 144.976C48.4027 145.659 48.1573 146.336 47.88 147.008C47.6133 147.669 47.3253 148.283 47.016 148.848C46.7173 149.403 46.408 149.883 46.088 150.288C46.024 150.128 45.928 149.947 45.8 149.744C45.672 149.531 45.56 149.349 45.464 149.2C45.752 148.837 46.04 148.411 46.328 147.92C46.6267 147.419 46.9093 146.875 47.176 146.288C47.4427 145.701 47.6773 145.104 47.88 144.496C48.0827 143.877 48.248 143.28 48.376 142.704ZM49.48 144.464C49.5973 144.571 49.768 144.757 49.992 145.024C50.2267 145.28 50.4773 145.563 50.744 145.872C51.0213 146.171 51.272 146.453 51.496 146.72C51.72 146.976 51.8747 147.163 51.96 147.28L51.224 148.256C51.1067 148.064 50.9467 147.824 50.744 147.536C50.5413 147.237 50.3227 146.928 50.088 146.608C49.8533 146.277 49.624 145.973 49.4 145.696C49.1867 145.419 49.0107 145.2 48.872 145.04L49.48 144.464ZM71.16 142.64L71.912 141.84C72.4133 142.128 72.9413 142.448 73.496 142.8C74.0507 143.152 74.5787 143.504 75.08 143.856C75.5813 144.208 75.992 144.523 76.312 144.8L75.528 145.712C75.2187 145.424 74.8133 145.099 74.312 144.736C73.8213 144.373 73.2987 144.011 72.744 143.648C72.1893 143.275 71.6613 142.939 71.16 142.64ZM72.008 145.216H72.616V147.504C72.616 147.696 72.6427 147.941 72.696 148.24C72.76 148.539 72.8667 148.869 73.016 149.232C73.176 149.584 73.4 149.947 73.688 150.32C73.976 150.693 74.3493 151.051 74.808 151.392C75.2667 151.733 75.8267 152.027 76.488 152.272C76.3813 152.411 76.2533 152.576 76.104 152.768C75.9653 152.971 75.8587 153.147 75.784 153.296C75.1653 153.051 74.632 152.752 74.184 152.4C73.736 152.048 73.3573 151.675 73.048 151.28C72.7493 150.885 72.5147 150.512 72.344 150.16C72.184 149.808 72.072 149.515 72.008 149.28C71.944 149.525 71.8213 149.824 71.64 150.176C71.4587 150.517 71.2027 150.88 70.872 151.264C70.5413 151.648 70.12 152.016 69.608 152.368C69.1067 152.72 68.504 153.029 67.8 153.296C67.7573 153.2 67.6933 153.093 67.608 152.976C67.5227 152.859 67.4373 152.741 67.352 152.624C67.2667 152.507 67.1867 152.411 67.112 152.336C67.848 152.08 68.472 151.781 68.984 151.44C69.496 151.088 69.9067 150.725 70.216 150.352C70.536 149.968 70.7813 149.595 70.952 149.232C71.1333 148.869 71.2507 148.539 71.304 148.24C71.368 147.941 71.4 147.696 71.4 147.504V145.216H72.008ZM71.496 138.56H72.696C72.6533 139.52 72.5627 140.384 72.424 141.152C72.296 141.92 72.0773 142.603 71.768 143.2C71.4693 143.787 71.0373 144.299 70.472 144.736C69.9173 145.173 69.1867 145.541 68.28 145.84C68.216 145.701 68.1147 145.536 67.976 145.344C67.848 145.152 67.72 145.003 67.592 144.896C68.424 144.64 69.0853 144.325 69.576 143.952C70.0773 143.579 70.4613 143.136 70.728 142.624C70.9947 142.112 71.1813 141.52 71.288 140.848C71.3947 140.176 71.464 139.413 71.496 138.56ZM69.128 139.632L70.136 139.84C70.0613 140.373 69.912 140.907 69.688 141.44C69.4747 141.973 69.1813 142.405 68.808 142.736L67.88 142.272C68.2107 141.995 68.4827 141.616 68.696 141.136C68.9093 140.645 69.0533 140.144 69.128 139.632ZM68.984 146.512L70.04 146.736C69.9333 147.344 69.7467 147.936 69.48 148.512C69.224 149.077 68.8773 149.536 68.44 149.888L67.48 149.328C67.8747 149.04 68.1947 148.64 68.44 148.128C68.696 147.616 68.8773 147.077 68.984 146.512ZM74.856 139.552L76.008 139.952C75.752 140.411 75.48 140.875 75.192 141.344C74.904 141.803 74.6373 142.197 74.392 142.528L73.496 142.16C73.656 141.925 73.8213 141.653 73.992 141.344C74.1627 141.035 74.3227 140.72 74.472 140.4C74.632 140.08 74.76 139.797 74.856 139.552ZM75.032 146.4L76.2 146.816C75.9227 147.296 75.6293 147.792 75.32 148.304C75.0107 148.816 74.7173 149.243 74.44 149.584L73.528 149.216C73.6987 148.971 73.8747 148.683 74.056 148.352C74.248 148.021 74.4293 147.685 74.6 147.344C74.7707 147.003 74.9147 146.688 75.032 146.4ZM62.36 143.408H67.048V144.352H62.36V143.408ZM62.424 139.12H66.984V140.08H62.424V139.12ZM62.36 145.536H67.048V146.496H62.36V145.536ZM61.608 141.216H67.576V142.224H61.608V141.216ZM62.904 147.696H67.064V152.368H62.904V151.376H66.008V148.704H62.904V147.696ZM62.344 147.696H63.4V153.104H62.344V147.696ZM84.088 139.424C84.0347 139.637 83.992 139.835 83.96 140.016C83.9387 140.187 83.912 140.363 83.88 140.544C83.8373 140.843 83.784 141.216 83.72 141.664C83.6667 142.112 83.6027 142.603 83.528 143.136C83.464 143.669 83.3947 144.219 83.32 144.784C83.256 145.349 83.192 145.899 83.128 146.432C83.0747 146.965 83.032 147.451 83 147.888C82.968 148.325 82.952 148.688 82.952 148.976C82.952 149.755 83.1707 150.368 83.608 150.816C84.056 151.264 84.7333 151.488 85.64 151.488C86.4613 151.488 87.1653 151.376 87.752 151.152C88.3493 150.928 88.808 150.613 89.128 150.208C89.4587 149.792 89.624 149.312 89.624 148.768C89.624 148.235 89.48 147.685 89.192 147.12C88.904 146.544 88.4667 146.005 87.88 145.504L89.288 145.216C89.832 145.824 90.2373 146.421 90.504 147.008C90.7813 147.584 90.92 148.219 90.92 148.912C90.92 149.701 90.696 150.384 90.248 150.96C89.8107 151.536 89.1973 151.973 88.408 152.272C87.6187 152.581 86.696 152.736 85.64 152.736C84.9147 152.736 84.2533 152.619 83.656 152.384C83.0693 152.16 82.6 151.787 82.248 151.264C81.896 150.741 81.72 150.043 81.72 149.168C81.72 148.827 81.7413 148.379 81.784 147.824C81.8373 147.269 81.9013 146.667 81.976 146.016C82.0613 145.355 82.1467 144.683 82.232 144C82.328 143.307 82.408 142.656 82.472 142.048C82.5467 141.44 82.6 140.912 82.632 140.464C82.664 140.187 82.68 139.968 82.68 139.808C82.68 139.637 82.6693 139.477 82.648 139.328L84.088 139.424ZM78.952 141.552C79.4107 141.691 79.912 141.808 80.456 141.904C81 142 81.5493 142.075 82.104 142.128C82.6587 142.171 83.1707 142.192 83.64 142.192C84.2587 142.192 84.84 142.176 85.384 142.144C85.9387 142.112 86.4453 142.059 86.904 141.984L86.872 143.184C86.36 143.227 85.8533 143.264 85.352 143.296C84.8507 143.317 84.2747 143.328 83.624 143.328C83.1547 143.328 82.6427 143.307 82.088 143.264C81.5333 143.211 80.9787 143.136 80.424 143.04C79.8693 142.944 79.3573 142.837 78.888 142.72L78.952 141.552ZM78.568 145.52C79.08 145.701 79.6187 145.845 80.184 145.952C80.76 146.048 81.3253 146.117 81.88 146.16C82.4347 146.203 82.9627 146.224 83.464 146.224C84.008 146.224 84.5573 146.213 85.112 146.192C85.6773 146.16 86.2373 146.101 86.792 146.016L86.76 147.232C86.2373 147.296 85.72 147.339 85.208 147.36C84.696 147.381 84.168 147.392 83.624 147.392C82.76 147.392 81.8693 147.339 80.952 147.232C80.0453 147.125 79.2293 146.965 78.504 146.752L78.568 145.52ZM94.12 140.4H111.92V142.88H94.12V140.4ZM104.4 141.4C104.8 142.92 105.353 144.34 106.06 145.66C106.767 146.98 107.64 148.133 108.68 149.12C109.733 150.107 110.96 150.887 112.36 151.46C112.16 151.633 111.947 151.853 111.72 152.12C111.507 152.387 111.293 152.66 111.08 152.94C110.88 153.233 110.713 153.493 110.58 153.72C109.047 153 107.727 152.073 106.62 150.94C105.527 149.807 104.607 148.487 103.86 146.98C103.113 145.46 102.487 143.787 101.98 141.96L104.4 141.4ZM101.64 135.02H104.26C104.247 136.033 104.213 137.107 104.16 138.24C104.12 139.36 104.02 140.5 103.86 141.66C103.7 142.82 103.44 143.973 103.08 145.12C102.733 146.253 102.24 147.347 101.6 148.4C100.973 149.44 100.16 150.413 99.16 151.32C98.1733 152.227 96.9667 153.027 95.54 153.72C95.3533 153.4 95.0933 153.047 94.76 152.66C94.4267 152.273 94.0867 151.953 93.74 151.7C95.1 151.087 96.24 150.38 97.16 149.58C98.08 148.767 98.8267 147.893 99.4 146.96C99.9867 146.013 100.433 145.033 100.74 144.02C101.047 142.993 101.253 141.96 101.36 140.92C101.48 139.88 101.553 138.86 101.58 137.86C101.607 136.86 101.627 135.913 101.64 135.02ZM116.56 146H122.84V147.6H116.56V146ZM116.56 148.46H122.84V150.08H116.56V148.46ZM116.1 136.68H123.14V138.54H116.1V136.68ZM113.68 139.98H123.4V141.9H113.68V139.98ZM116.56 150.94H123.44V152.72H116.56V150.94ZM118.86 144.36H120.94V151.74H118.86V144.36ZM117.38 143.42H123.04V145.16H117.38V153.78H115.28V145.36L117.1 143.42H117.38ZM119.52 141.84L121.68 142.22C121.467 142.687 121.253 143.133 121.04 143.56C120.84 143.987 120.653 144.353 120.48 144.66L118.66 144.28C118.807 143.933 118.96 143.533 119.12 143.08C119.293 142.613 119.427 142.2 119.52 141.84ZM115.74 134.98L117.86 135.48C117.593 136.373 117.24 137.247 116.8 138.1C116.36 138.953 115.9 139.667 115.42 140.24C115.287 140.12 115.107 139.987 114.88 139.84C114.667 139.68 114.44 139.533 114.2 139.4C113.96 139.253 113.753 139.133 113.58 139.04C114.06 138.547 114.487 137.94 114.86 137.22C115.233 136.487 115.527 135.74 115.74 134.98ZM117.58 137.8L119.64 138.28C119.307 139.507 118.887 140.693 118.38 141.84C117.887 142.973 117.32 144.033 116.68 145.02C116.04 146.007 115.34 146.86 114.58 147.58C114.513 147.42 114.4 147.22 114.24 146.98C114.08 146.727 113.92 146.473 113.76 146.22C113.6 145.967 113.447 145.767 113.3 145.62C114.287 144.727 115.147 143.593 115.88 142.22C116.613 140.833 117.18 139.36 117.58 137.8ZM125.12 138.58H130.74V140.76H125.12V138.58ZM127.54 139.48H128.68V142.9C128.68 143.3 128.713 143.78 128.78 144.34C128.847 144.887 128.96 145.487 129.12 146.14C129.293 146.793 129.52 147.453 129.8 148.12C130.093 148.773 130.467 149.407 130.92 150.02C131.373 150.633 131.92 151.18 132.56 151.66C132.413 151.847 132.247 152.06 132.06 152.3C131.887 152.553 131.713 152.813 131.54 153.08C131.367 153.347 131.22 153.58 131.1 153.78C130.54 153.353 130.047 152.84 129.62 152.24C129.193 151.64 128.833 151.02 128.54 150.38C128.26 149.727 128.033 149.107 127.86 148.52C127.7 147.92 127.587 147.407 127.52 146.98C127.453 147.407 127.327 147.92 127.14 148.52C126.953 149.107 126.693 149.72 126.36 150.36C126.04 151 125.64 151.62 125.16 152.22C124.693 152.82 124.14 153.34 123.5 153.78C123.42 153.607 123.3 153.387 123.14 153.12C122.98 152.867 122.813 152.613 122.64 152.36C122.467 152.12 122.313 151.927 122.18 151.78C122.873 151.3 123.46 150.753 123.94 150.14C124.433 149.513 124.833 148.867 125.14 148.2C125.46 147.52 125.707 146.853 125.88 146.2C126.067 145.547 126.193 144.94 126.26 144.38C126.327 143.807 126.36 143.313 126.36 142.9V139.48H127.54ZM124.78 134.98L127.04 135.3C126.907 136.473 126.713 137.62 126.46 138.74C126.22 139.847 125.933 140.88 125.6 141.84C125.267 142.8 124.887 143.64 124.46 144.36C124.313 144.253 124.113 144.127 123.86 143.98C123.607 143.82 123.347 143.673 123.08 143.54C122.827 143.407 122.607 143.3 122.42 143.22C122.847 142.58 123.213 141.827 123.52 140.96C123.84 140.08 124.1 139.133 124.3 138.12C124.5 137.093 124.66 136.047 124.78 134.98ZM130.1 138.58H130.42L130.78 138.5L132.36 138.92C132.28 139.56 132.187 140.22 132.08 140.9C131.987 141.58 131.88 142.233 131.76 142.86C131.64 143.487 131.513 144.047 131.38 144.54L129.5 144C129.58 143.56 129.653 143.053 129.72 142.48C129.8 141.907 129.873 141.313 129.94 140.7C130.02 140.073 130.073 139.487 130.1 138.94V138.58ZM138.06 142.8V150.18H135.82V145.02H133.74V142.8H138.06ZM138.06 149.24C138.447 149.92 139 150.42 139.72 150.74C140.453 151.06 141.333 151.24 142.36 151.28C142.987 151.307 143.733 151.327 144.6 151.34C145.467 151.34 146.38 151.333 147.34 151.32C148.3 151.307 149.233 151.287 150.14 151.26C151.06 151.22 151.873 151.167 152.58 151.1C152.5 151.287 152.407 151.513 152.3 151.78C152.207 152.033 152.12 152.3 152.04 152.58C151.96 152.873 151.9 153.133 151.86 153.36C151.22 153.387 150.487 153.407 149.66 153.42C148.833 153.447 147.973 153.46 147.08 153.46C146.2 153.473 145.353 153.473 144.54 153.46C143.727 153.447 143 153.427 142.36 153.4C141.147 153.347 140.113 153.153 139.26 152.82C138.42 152.487 137.693 151.927 137.08 151.14C136.707 151.54 136.313 151.94 135.9 152.34C135.5 152.74 135.06 153.16 134.58 153.6L133.44 151.32C133.853 151.027 134.287 150.7 134.74 150.34C135.193 149.98 135.627 149.613 136.04 149.24H138.06ZM133.6 136.64L135.5 135.44C135.86 135.76 136.22 136.113 136.58 136.5C136.953 136.887 137.293 137.273 137.6 137.66C137.907 138.047 138.147 138.407 138.32 138.74L136.28 140.08C136.133 139.76 135.913 139.4 135.62 139C135.327 138.587 135 138.173 134.64 137.76C134.293 137.347 133.947 136.973 133.6 136.64ZM145.1 136.24H150.64V138.26H147.28V150.68H145.1V136.24ZM139.7 136.42L141.9 136.98V147.3H139.7V136.42ZM149.42 136.24H151.62V146.44C151.62 146.92 151.567 147.313 151.46 147.62C151.353 147.913 151.14 148.147 150.82 148.32C150.527 148.493 150.16 148.6 149.72 148.64C149.293 148.68 148.787 148.7 148.2 148.7C148.16 148.407 148.073 148.067 147.94 147.68C147.82 147.28 147.687 146.947 147.54 146.68C147.873 146.693 148.193 146.7 148.5 146.7C148.807 146.7 149.013 146.7 149.12 146.7C149.32 146.7 149.42 146.593 149.42 146.38V136.24ZM143.5 135L145.16 136.8C144.52 137.173 143.833 137.52 143.1 137.84C142.38 138.16 141.687 138.433 141.02 138.66C140.967 138.433 140.867 138.153 140.72 137.82C140.587 137.487 140.453 137.207 140.32 136.98C140.693 136.793 141.073 136.593 141.46 136.38C141.86 136.167 142.233 135.94 142.58 135.7C142.94 135.46 143.247 135.227 143.5 135ZM138.54 146.7C139.3 146.527 140.2 146.32 141.24 146.08C142.293 145.827 143.353 145.567 144.42 145.3L144.68 147.34C143.747 147.593 142.793 147.853 141.82 148.12C140.847 148.373 139.96 148.607 139.16 148.82L138.54 146.7Z" fill="#936B2E"/>
<circle cx="102" cy="52" r="52"/>
<defs>
<linearGradient id="paint0_linear_2376_1861" x1="151.301" y1="58.5608" x2="165.512" y2="58.5608" gradientUnits="userSpaceOnUse">
<stop stop-color="#A17B26"/>
<stop offset="0.21" stop-color="#D1B760"/>
<stop offset="0.33" stop-color="#EAD77F"/>
<stop offset="0.52" stop-color="#F5ECA6"/>
<stop offset="0.73" stop-color="#EAD77F"/>
<stop offset="1" stop-color="#A17B26"/>
</linearGradient>
<linearGradient id="paint1_linear_2376_1861" x1="129.745" y1="189.059" x2="142.042" y2="189.059" gradientUnits="userSpaceOnUse">
<stop stop-color="#A17B26"/>
<stop offset="0.21" stop-color="#D1B760"/>
<stop offset="0.33" stop-color="#EAD77F"/>
<stop offset="0.52" stop-color="#F5ECA6"/>
<stop offset="0.73" stop-color="#EAD77F"/>
<stop offset="1" stop-color="#A17B26"/>
</linearGradient>
<linearGradient id="paint2_linear_2376_1861" x1="129.701" y1="199.3" x2="151.44" y2="199.3" gradientUnits="userSpaceOnUse">
<stop stop-color="#A17B26"/>
<stop offset="0.21" stop-color="#D1B760"/>
<stop offset="0.33" stop-color="#EAD77F"/>
<stop offset="0.52" stop-color="#F5ECA6"/>
<stop offset="0.73" stop-color="#EAD77F"/>
<stop offset="1" stop-color="#A17B26"/>
</linearGradient>
<linearGradient id="paint3_linear_2376_1861" x1="143.985" y1="183.18" x2="153.37" y2="183.18" gradientUnits="userSpaceOnUse">
<stop stop-color="#A17B26"/>
<stop offset="0.21" stop-color="#D1B760"/>
<stop offset="0.33" stop-color="#EAD77F"/>
<stop offset="0.52" stop-color="#F5ECA6"/>
<stop offset="0.73" stop-color="#EAD77F"/>
<stop offset="1" stop-color="#A17B26"/>
</linearGradient>
<linearGradient id="paint4_linear_2376_1861" x1="144.082" y1="192.284" x2="165.191" y2="192.284" gradientUnits="userSpaceOnUse">
<stop stop-color="#A17B26"/>
<stop offset="0.21" stop-color="#D1B760"/>
<stop offset="0.33" stop-color="#EAD77F"/>
<stop offset="0.52" stop-color="#F5ECA6"/>
<stop offset="0.73" stop-color="#EAD77F"/>
<stop offset="1" stop-color="#A17B26"/>
</linearGradient>
<linearGradient id="paint5_linear_2376_1861" x1="155.759" y1="175.371" x2="163.372" y2="175.371" gradientUnits="userSpaceOnUse">
<stop stop-color="#A17B26"/>
<stop offset="0.21" stop-color="#D1B760"/>
<stop offset="0.33" stop-color="#EAD77F"/>
<stop offset="0.52" stop-color="#F5ECA6"/>
<stop offset="0.73" stop-color="#EAD77F"/>
<stop offset="1" stop-color="#A17B26"/>
</linearGradient>
<linearGradient id="paint6_linear_2376_1861" x1="156.615" y1="183.05" x2="176.729" y2="183.05" gradientUnits="userSpaceOnUse">
<stop stop-color="#A17B26"/>
<stop offset="0.21" stop-color="#D1B760"/>
<stop offset="0.33" stop-color="#EAD77F"/>
<stop offset="0.52" stop-color="#F5ECA6"/>
<stop offset="0.73" stop-color="#EAD77F"/>
<stop offset="1" stop-color="#A17B26"/>
</linearGradient>
<linearGradient id="paint7_linear_2376_1861" x1="165.09" y1="165.955" x2="171.87" y2="165.955" gradientUnits="userSpaceOnUse">
<stop stop-color="#A17B26"/>
<stop offset="0.21" stop-color="#D1B760"/>
<stop offset="0.33" stop-color="#EAD77F"/>
<stop offset="0.52" stop-color="#F5ECA6"/>
<stop offset="0.73" stop-color="#EAD77F"/>
<stop offset="1" stop-color="#A17B26"/>
</linearGradient>
<linearGradient id="paint8_linear_2376_1861" x1="167.219" y1="171.947" x2="185.959" y2="171.947" gradientUnits="userSpaceOnUse">
<stop stop-color="#A17B26"/>
<stop offset="0.21" stop-color="#D1B760"/>
<stop offset="0.33" stop-color="#EAD77F"/>
<stop offset="0.52" stop-color="#F5ECA6"/>
<stop offset="0.73" stop-color="#EAD77F"/>
<stop offset="1" stop-color="#A17B26"/>
</linearGradient>
<linearGradient id="paint9_linear_2376_1861" x1="172.095" y1="155.238" x2="178.729" y2="155.238" gradientUnits="userSpaceOnUse">
<stop stop-color="#A17B26"/>
<stop offset="0.21" stop-color="#D1B760"/>
<stop offset="0.33" stop-color="#EAD77F"/>
<stop offset="0.52" stop-color="#F5ECA6"/>
<stop offset="0.73" stop-color="#EAD77F"/>
<stop offset="1" stop-color="#A17B26"/>
</linearGradient>
<linearGradient id="paint10_linear_2376_1861" x1="175.811" y1="159.325" x2="192.796" y2="159.325" gradientUnits="userSpaceOnUse">
<stop stop-color="#A17B26"/>
<stop offset="0.21" stop-color="#D1B760"/>
<stop offset="0.33" stop-color="#EAD77F"/>
<stop offset="0.52" stop-color="#F5ECA6"/>
<stop offset="0.73" stop-color="#EAD77F"/>
<stop offset="1" stop-color="#A17B26"/>
</linearGradient>
<linearGradient id="paint11_linear_2376_1861" x1="176.664" y1="143.538" x2="183.854" y2="143.538" gradientUnits="userSpaceOnUse">
<stop stop-color="#A17B26"/>
<stop offset="0.21" stop-color="#D1B760"/>
<stop offset="0.33" stop-color="#EAD77F"/>
<stop offset="0.52" stop-color="#F5ECA6"/>
<stop offset="0.73" stop-color="#EAD77F"/>
<stop offset="1" stop-color="#A17B26"/>
</linearGradient>
<linearGradient id="paint12_linear_2376_1861" x1="182.32" y1="145.633" x2="197.153" y2="145.633" gradientUnits="userSpaceOnUse">
<stop stop-color="#A17B26"/>
<stop offset="0.21" stop-color="#D1B760"/>
<stop offset="0.33" stop-color="#EAD77F"/>
<stop offset="0.52" stop-color="#F5ECA6"/>
<stop offset="0.73" stop-color="#EAD77F"/>
<stop offset="1" stop-color="#A17B26"/>
</linearGradient>
<linearGradient id="paint13_linear_2376_1861" x1="178.602" y1="131.167" x2="187.255" y2="131.167" gradientUnits="userSpaceOnUse">
<stop stop-color="#A17B26"/>
<stop offset="0.21" stop-color="#D1B760"/>
<stop offset="0.33" stop-color="#EAD77F"/>
<stop offset="0.52" stop-color="#F5ECA6"/>
<stop offset="0.73" stop-color="#EAD77F"/>
<stop offset="1" stop-color="#A17B26"/>
</linearGradient>
<linearGradient id="paint14_linear_2376_1861" x1="186.658" y1="131.386" x2="198.944" y2="131.386" gradientUnits="userSpaceOnUse">
<stop stop-color="#A17B26"/>
<stop offset="0.21" stop-color="#D1B760"/>
<stop offset="0.33" stop-color="#EAD77F"/>
<stop offset="0.52" stop-color="#F5ECA6"/>
<stop offset="0.73" stop-color="#EAD77F"/>
<stop offset="1" stop-color="#A17B26"/>
</linearGradient>
<linearGradient id="paint15_linear_2376_1861" x1="178.082" y1="118.443" x2="188.954" y2="118.443" gradientUnits="userSpaceOnUse">
<stop stop-color="#A17B26"/>
<stop offset="0.21" stop-color="#D1B760"/>
<stop offset="0.33" stop-color="#EAD77F"/>
<stop offset="0.52" stop-color="#F5ECA6"/>
<stop offset="0.73" stop-color="#EAD77F"/>
<stop offset="1" stop-color="#A17B26"/>
</linearGradient>
<linearGradient id="paint16_linear_2376_1861" x1="188.742" y1="116.855" x2="198.297" y2="116.855" gradientUnits="userSpaceOnUse">
<stop stop-color="#A17B26"/>
<stop offset="0.21" stop-color="#D1B760"/>
<stop offset="0.33" stop-color="#EAD77F"/>
<stop offset="0.52" stop-color="#F5ECA6"/>
<stop offset="0.73" stop-color="#EAD77F"/>
<stop offset="1" stop-color="#A17B26"/>
</linearGradient>
<linearGradient id="paint17_linear_2376_1861" x1="175.467" y1="105.663" x2="188.686" y2="105.663" gradientUnits="userSpaceOnUse">
<stop stop-color="#A17B26"/>
<stop offset="0.21" stop-color="#D1B760"/>
<stop offset="0.33" stop-color="#EAD77F"/>
<stop offset="0.52" stop-color="#F5ECA6"/>
<stop offset="0.73" stop-color="#EAD77F"/>
<stop offset="1" stop-color="#A17B26"/>
</linearGradient>
<linearGradient id="paint18_linear_2376_1861" x1="188.3" y1="102.331" x2="195.686" y2="102.331" gradientUnits="userSpaceOnUse">
<stop stop-color="#A17B26"/>
<stop offset="0.21" stop-color="#D1B760"/>
<stop offset="0.33" stop-color="#EAD77F"/>
<stop offset="0.52" stop-color="#F5ECA6"/>
<stop offset="0.73" stop-color="#EAD77F"/>
<stop offset="1" stop-color="#A17B26"/>
</linearGradient>
<linearGradient id="paint19_linear_2376_1861" x1="170.676" y1="93.0157" x2="186.02" y2="93.0157" gradientUnits="userSpaceOnUse">
<stop stop-color="#A17B26"/>
<stop offset="0.21" stop-color="#D1B760"/>
<stop offset="0.33" stop-color="#EAD77F"/>
<stop offset="0.52" stop-color="#F5ECA6"/>
<stop offset="0.73" stop-color="#EAD77F"/>
<stop offset="1" stop-color="#A17B26"/>
</linearGradient>
<linearGradient id="paint20_linear_2376_1861" x1="184.321" y1="88.189" x2="190.996" y2="88.189" gradientUnits="userSpaceOnUse">
<stop stop-color="#A17B26"/>
<stop offset="0.21" stop-color="#D1B760"/>
<stop offset="0.33" stop-color="#EAD77F"/>
<stop offset="0.52" stop-color="#F5ECA6"/>
<stop offset="0.73" stop-color="#EAD77F"/>
<stop offset="1" stop-color="#A17B26"/>
</linearGradient>
<linearGradient id="paint21_linear_2376_1861" x1="163.641" y1="80.9298" x2="180.866" y2="80.9298" gradientUnits="userSpaceOnUse">
<stop stop-color="#A17B26"/>
<stop offset="0.21" stop-color="#D1B760"/>
<stop offset="0.33" stop-color="#EAD77F"/>
<stop offset="0.52" stop-color="#F5ECA6"/>
<stop offset="0.73" stop-color="#EAD77F"/>
<stop offset="1" stop-color="#A17B26"/>
</linearGradient>
<linearGradient id="paint22_linear_2376_1861" x1="176.81" y1="74.795" x2="184.054" y2="74.795" gradientUnits="userSpaceOnUse">
<stop stop-color="#A17B26"/>
<stop offset="0.21" stop-color="#D1B760"/>
<stop offset="0.33" stop-color="#EAD77F"/>
<stop offset="0.52" stop-color="#F5ECA6"/>
<stop offset="0.73" stop-color="#EAD77F"/>
<stop offset="1" stop-color="#A17B26"/>
</linearGradient>
<linearGradient id="paint23_linear_2376_1861" x1="154.283" y1="69.8593" x2="173.125" y2="69.8593" gradientUnits="userSpaceOnUse">
<stop stop-color="#A17B26"/>
<stop offset="0.21" stop-color="#D1B760"/>
<stop offset="0.33" stop-color="#EAD77F"/>
<stop offset="0.52" stop-color="#F5ECA6"/>
<stop offset="0.73" stop-color="#EAD77F"/>
<stop offset="1" stop-color="#A17B26"/>
</linearGradient>
<linearGradient id="paint24_linear_2376_1861" x1="165.704" y1="62.5095" x2="174.829" y2="62.5095" gradientUnits="userSpaceOnUse">
<stop stop-color="#A17B26"/>
<stop offset="0.21" stop-color="#D1B760"/>
<stop offset="0.33" stop-color="#EAD77F"/>
<stop offset="0.52" stop-color="#F5ECA6"/>
<stop offset="0.73" stop-color="#EAD77F"/>
<stop offset="1" stop-color="#A17B26"/>
</linearGradient>
<linearGradient id="paint25_linear_2376_1861" x1="109.77" y1="130.143" x2="189.038" y2="130.143" gradientUnits="userSpaceOnUse">
<stop stop-color="#A17B26"/>
<stop offset="0.21" stop-color="#D1B760"/>
<stop offset="0.33" stop-color="#EAD77F"/>
<stop offset="0.52" stop-color="#F5ECA6"/>
<stop offset="0.73" stop-color="#EAD77F"/>
<stop offset="1" stop-color="#A17B26"/>
</linearGradient>
<linearGradient id="paint26_linear_2376_1861" x1="33.4316" y1="51.9998" x2="47.6425" y2="51.9998" gradientUnits="userSpaceOnUse">
<stop stop-color="#A17B26"/>
<stop offset="0.21" stop-color="#D1B760"/>
<stop offset="0.33" stop-color="#EAD77F"/>
<stop offset="0.52" stop-color="#F5ECA6"/>
<stop offset="0.73" stop-color="#EAD77F"/>
<stop offset="1" stop-color="#A17B26"/>
</linearGradient>
<linearGradient id="paint27_linear_2376_1861" x1="56.9" y1="189.059" x2="69.1973" y2="189.059" gradientUnits="userSpaceOnUse">
<stop stop-color="#A17B26"/>
<stop offset="0.21" stop-color="#D1B760"/>
<stop offset="0.33" stop-color="#EAD77F"/>
<stop offset="0.52" stop-color="#F5ECA6"/>
<stop offset="0.73" stop-color="#EAD77F"/>
<stop offset="1" stop-color="#A17B26"/>
</linearGradient>
<linearGradient id="paint28_linear_2376_1861" x1="47.5028" y1="199.3" x2="69.2416" y2="199.3" gradientUnits="userSpaceOnUse">
<stop stop-color="#A17B26"/>
<stop offset="0.21" stop-color="#D1B760"/>
<stop offset="0.33" stop-color="#EAD77F"/>
<stop offset="0.52" stop-color="#F5ECA6"/>
<stop offset="0.73" stop-color="#EAD77F"/>
<stop offset="1" stop-color="#A17B26"/>
</linearGradient>
<linearGradient id="paint29_linear_2376_1861" x1="45.569" y1="183.18" x2="54.9576" y2="183.18" gradientUnits="userSpaceOnUse">
<stop stop-color="#A17B26"/>
<stop offset="0.21" stop-color="#D1B760"/>
<stop offset="0.33" stop-color="#EAD77F"/>
<stop offset="0.52" stop-color="#F5ECA6"/>
<stop offset="0.73" stop-color="#EAD77F"/>
<stop offset="1" stop-color="#A17B26"/>
</linearGradient>
<linearGradient id="paint30_linear_2376_1861" x1="33.7468" y1="192.284" x2="54.86" y2="192.284" gradientUnits="userSpaceOnUse">
<stop stop-color="#A17B26"/>
<stop offset="0.21" stop-color="#D1B760"/>
<stop offset="0.33" stop-color="#EAD77F"/>
<stop offset="0.52" stop-color="#F5ECA6"/>
<stop offset="0.73" stop-color="#EAD77F"/>
<stop offset="1" stop-color="#A17B26"/>
</linearGradient>
<linearGradient id="paint31_linear_2376_1861" x1="35.5722" y1="175.371" x2="43.1854" y2="175.371" gradientUnits="userSpaceOnUse">
<stop stop-color="#A17B26"/>
<stop offset="0.21" stop-color="#D1B760"/>
<stop offset="0.33" stop-color="#EAD77F"/>
<stop offset="0.52" stop-color="#F5ECA6"/>
<stop offset="0.73" stop-color="#EAD77F"/>
<stop offset="1" stop-color="#A17B26"/>
</linearGradient>
<linearGradient id="paint32_linear_2376_1861" x1="22.2137" y1="183.05" x2="42.3274" y2="183.05" gradientUnits="userSpaceOnUse">
<stop stop-color="#A17B26"/>
<stop offset="0.21" stop-color="#D1B760"/>
<stop offset="0.33" stop-color="#EAD77F"/>
<stop offset="0.52" stop-color="#F5ECA6"/>
<stop offset="0.73" stop-color="#EAD77F"/>
<stop offset="1" stop-color="#A17B26"/>
</linearGradient>
<linearGradient id="paint33_linear_2376_1861" x1="27.0725" y1="165.955" x2="33.8489" y2="165.955" gradientUnits="userSpaceOnUse">
<stop stop-color="#A17B26"/>
<stop offset="0.21" stop-color="#D1B760"/>
<stop offset="0.33" stop-color="#EAD77F"/>
<stop offset="0.52" stop-color="#F5ECA6"/>
<stop offset="0.73" stop-color="#EAD77F"/>
<stop offset="1" stop-color="#A17B26"/>
</linearGradient>
<linearGradient id="paint34_linear_2376_1861" x1="12.9833" y1="171.947" x2="31.7238" y2="171.947" gradientUnits="userSpaceOnUse">
<stop stop-color="#A17B26"/>
<stop offset="0.21" stop-color="#D1B760"/>
<stop offset="0.33" stop-color="#EAD77F"/>
<stop offset="0.52" stop-color="#F5ECA6"/>
<stop offset="0.73" stop-color="#EAD77F"/>
<stop offset="1" stop-color="#A17B26"/>
</linearGradient>
<linearGradient id="paint35_linear_2376_1861" x1="20.2155" y1="155.238" x2="26.8496" y2="155.238" gradientUnits="userSpaceOnUse">
<stop stop-color="#A17B26"/>
<stop offset="0.21" stop-color="#D1B760"/>
<stop offset="0.33" stop-color="#EAD77F"/>
<stop offset="0.52" stop-color="#F5ECA6"/>
<stop offset="0.73" stop-color="#EAD77F"/>
<stop offset="1" stop-color="#A17B26"/>
</linearGradient>
<linearGradient id="paint36_linear_2376_1861" x1="6.14574" y1="159.325" x2="23.1313" y2="159.325" gradientUnits="userSpaceOnUse">
<stop stop-color="#A17B26"/>
<stop offset="0.21" stop-color="#D1B760"/>
<stop offset="0.33" stop-color="#EAD77F"/>
<stop offset="0.52" stop-color="#F5ECA6"/>
<stop offset="0.73" stop-color="#EAD77F"/>
<stop offset="1" stop-color="#A17B26"/>
</linearGradient>
<linearGradient id="paint37_linear_2376_1861" x1="15.0845" y1="143.538" x2="22.2793" y2="143.538" gradientUnits="userSpaceOnUse">
<stop stop-color="#A17B26"/>
<stop offset="0.21" stop-color="#D1B760"/>
<stop offset="0.33" stop-color="#EAD77F"/>
<stop offset="0.52" stop-color="#F5ECA6"/>
<stop offset="0.73" stop-color="#EAD77F"/>
<stop offset="1" stop-color="#A17B26"/>
</linearGradient>
<linearGradient id="paint38_linear_2376_1861" x1="1.79071" y1="145.633" x2="16.6231" y2="145.633" gradientUnits="userSpaceOnUse">
<stop stop-color="#A17B26"/>
<stop offset="0.21" stop-color="#D1B760"/>
<stop offset="0.33" stop-color="#EAD77F"/>
<stop offset="0.52" stop-color="#F5ECA6"/>
<stop offset="0.73" stop-color="#EAD77F"/>
<stop offset="1" stop-color="#A17B26"/>
</linearGradient>
<linearGradient id="paint39_linear_2376_1861" x1="11.6876" y1="131.167" x2="20.3409" y2="131.167" gradientUnits="userSpaceOnUse">
<stop stop-color="#A17B26"/>
<stop offset="0.21" stop-color="#D1B760"/>
<stop offset="0.33" stop-color="#EAD77F"/>
<stop offset="0.52" stop-color="#F5ECA6"/>
<stop offset="0.73" stop-color="#EAD77F"/>
<stop offset="1" stop-color="#A17B26"/>
</linearGradient>
<linearGradient id="paint40_linear_2376_1861" x1="-0.000353728" y1="131.386" x2="12.2848" y2="131.386" gradientUnits="userSpaceOnUse">
<stop stop-color="#A17B26"/>
<stop offset="0.21" stop-color="#D1B760"/>
<stop offset="0.33" stop-color="#EAD77F"/>
<stop offset="0.52" stop-color="#F5ECA6"/>
<stop offset="0.73" stop-color="#EAD77F"/>
<stop offset="1" stop-color="#A17B26"/>
</linearGradient>
<linearGradient id="paint41_linear_2376_1861" x1="9.99039" y1="118.443" x2="20.8577" y2="118.443" gradientUnits="userSpaceOnUse">
<stop stop-color="#A17B26"/>
<stop offset="0.21" stop-color="#D1B760"/>
<stop offset="0.33" stop-color="#EAD77F"/>
<stop offset="0.52" stop-color="#F5ECA6"/>
<stop offset="0.73" stop-color="#EAD77F"/>
<stop offset="1" stop-color="#A17B26"/>
</linearGradient>
<linearGradient id="paint42_linear_2376_1861" x1="0.646489" y1="116.855" x2="10.1976" y2="116.855" gradientUnits="userSpaceOnUse">
<stop stop-color="#A17B26"/>
<stop offset="0.21" stop-color="#D1B760"/>
<stop offset="0.33" stop-color="#EAD77F"/>
<stop offset="0.52" stop-color="#F5ECA6"/>
<stop offset="0.73" stop-color="#EAD77F"/>
<stop offset="1" stop-color="#A17B26"/>
</linearGradient>
<linearGradient id="paint43_linear_2376_1861" x1="10.2581" y1="105.663" x2="23.4777" y2="105.663" gradientUnits="userSpaceOnUse">
<stop stop-color="#A17B26"/>
<stop offset="0.21" stop-color="#D1B760"/>
<stop offset="0.33" stop-color="#EAD77F"/>
<stop offset="0.52" stop-color="#F5ECA6"/>
<stop offset="0.73" stop-color="#EAD77F"/>
<stop offset="1" stop-color="#A17B26"/>
</linearGradient>
<linearGradient id="paint44_linear_2376_1861" x1="3.25722" y1="102.331" x2="10.643" y2="102.331" gradientUnits="userSpaceOnUse">
<stop stop-color="#A17B26"/>
<stop offset="0.21" stop-color="#D1B760"/>
<stop offset="0.33" stop-color="#EAD77F"/>
<stop offset="0.52" stop-color="#F5ECA6"/>
<stop offset="0.73" stop-color="#EAD77F"/>
<stop offset="1" stop-color="#A17B26"/>
</linearGradient>
<linearGradient id="paint45_linear_2376_1861" x1="12.9192" y1="93.0157" x2="28.2675" y2="93.0157" gradientUnits="userSpaceOnUse">
<stop stop-color="#A17B26"/>
<stop offset="0.21" stop-color="#D1B760"/>
<stop offset="0.33" stop-color="#EAD77F"/>
<stop offset="0.52" stop-color="#F5ECA6"/>
<stop offset="0.73" stop-color="#EAD77F"/>
<stop offset="1" stop-color="#A17B26"/>
</linearGradient>
<linearGradient id="paint46_linear_2376_1861" x1="7.94712" y1="88.189" x2="14.6219" y2="88.189" gradientUnits="userSpaceOnUse">
<stop stop-color="#A17B26"/>
<stop offset="0.21" stop-color="#D1B760"/>
<stop offset="0.33" stop-color="#EAD77F"/>
<stop offset="0.52" stop-color="#F5ECA6"/>
<stop offset="0.73" stop-color="#EAD77F"/>
<stop offset="1" stop-color="#A17B26"/>
</linearGradient>
<linearGradient id="paint47_linear_2376_1861" x1="18.0791" y1="80.9298" x2="35.3043" y2="80.9298" gradientUnits="userSpaceOnUse">
<stop stop-color="#A17B26"/>
<stop offset="0.21" stop-color="#D1B760"/>
<stop offset="0.33" stop-color="#EAD77F"/>
<stop offset="0.52" stop-color="#F5ECA6"/>
<stop offset="0.73" stop-color="#EAD77F"/>
<stop offset="1" stop-color="#A17B26"/>
</linearGradient>
<linearGradient id="paint48_linear_2376_1861" x1="14.885" y1="74.795" x2="22.1326" y2="74.795" gradientUnits="userSpaceOnUse">
<stop stop-color="#A17B26"/>
<stop offset="0.21" stop-color="#D1B760"/>
<stop offset="0.33" stop-color="#EAD77F"/>
<stop offset="0.52" stop-color="#F5ECA6"/>
<stop offset="0.73" stop-color="#EAD77F"/>
<stop offset="1" stop-color="#A17B26"/>
</linearGradient>
<linearGradient id="paint49_linear_2376_1861" x1="25.8173" y1="69.8593" x2="44.6594" y2="69.8593" gradientUnits="userSpaceOnUse">
<stop stop-color="#A17B26"/>
<stop offset="0.21" stop-color="#D1B760"/>
<stop offset="0.33" stop-color="#EAD77F"/>
<stop offset="0.52" stop-color="#F5ECA6"/>
<stop offset="0.73" stop-color="#EAD77F"/>
<stop offset="1" stop-color="#A17B26"/>
</linearGradient>
<linearGradient id="paint50_linear_2376_1861" x1="24.1146" y1="62.5095" x2="33.235" y2="62.5095" gradientUnits="userSpaceOnUse">
<stop stop-color="#A17B26"/>
<stop offset="0.21" stop-color="#D1B760"/>
<stop offset="0.33" stop-color="#EAD77F"/>
<stop offset="0.52" stop-color="#F5ECA6"/>
<stop offset="0.73" stop-color="#EAD77F"/>
<stop offset="1" stop-color="#A17B26"/>
</linearGradient>
<linearGradient id="paint51_linear_2376_1861" x1="9.90438" y1="130.143" x2="89.173" y2="130.143" gradientUnits="userSpaceOnUse">
<stop stop-color="#A17B26"/>
<stop offset="0.21" stop-color="#D1B760"/>
<stop offset="0.33" stop-color="#EAD77F"/>
<stop offset="0.52" stop-color="#F5ECA6"/>
<stop offset="0.73" stop-color="#EAD77F"/>
<stop offset="1" stop-color="#A17B26"/>
</linearGradient>
<linearGradient id="paint52_linear_2376_1861" x1="86.3574" y1="198.886" x2="102.994" y2="198.886" gradientUnits="userSpaceOnUse">
<stop stop-color="#A17B26"/>
<stop offset="0.21" stop-color="#D1B760"/>
<stop offset="0.33" stop-color="#EAD77F"/>
<stop offset="0.52" stop-color="#F5ECA6"/>
<stop offset="0.73" stop-color="#EAD77F"/>
<stop offset="1" stop-color="#A17B26"/>
</linearGradient>
<linearGradient id="paint53_linear_2376_1861" x1="95.5645" y1="198.886" x2="112.205" y2="198.886" gradientUnits="userSpaceOnUse">
<stop stop-color="#A17B26"/>
<stop offset="0.21" stop-color="#D1B760"/>
<stop offset="0.33" stop-color="#EAD77F"/>
<stop offset="0.52" stop-color="#F5ECA6"/>
<stop offset="0.73" stop-color="#EAD77F"/>
<stop offset="1" stop-color="#A17B26"/>
</linearGradient>
<clipPath id="clip0_2376_1861">
<rect width="198.943" height="153" fill="white" transform="translate(0 52)"/>
</clipPath>
</defs>
</svg>
