<svg width="570" height="70" viewBox="0 0 570 70" fill="none" xmlns="http://www.w3.org/2000/svg">
<rect width="193" height="69.0156" fill="#936B2E"/>
<path d="M12.0072 29.5556C12.0072 22.0663 18.1884 16 25.8072 16C33.4259 16 39.6072 22.0663 39.6072 29.5556C39.6072 38.1303 30.9678 48.4084 27.3597 52.3256C26.5116 53.2456 25.0956 53.2456 24.2475 52.3256C20.6394 48.4084 12 38.1303 12 29.5556H12.0072ZM25.8072 34.4C28.3444 34.4 30.4072 32.3372 30.4072 29.8C30.4072 27.2628 28.3444 25.2 25.8072 25.2C23.27 25.2 21.2072 27.2628 21.2072 29.8C21.2072 32.3372 23.27 34.4 25.8072 34.4Z" fill="white"/>
<path d="M72.1674 23.9838V26.6958H51.0234V23.9838H60.0234V21.6798H63.0474V23.9838H72.1674ZM54.4074 36.9678L57.3354 37.9038C56.1354 39.8238 54.3594 41.9358 52.6794 43.2318C52.0554 42.7038 50.9994 41.9598 50.3514 41.5758C51.9594 40.4238 53.6154 38.5038 54.4074 36.9678ZM56.6154 30.8478V33.5838H66.5994V30.8478H56.6154ZM69.6234 36.0318H63.0474V41.0958C63.0474 42.5358 62.7834 43.2558 61.7274 43.6638C60.6714 44.0718 59.2554 44.0958 57.3354 44.0958C57.1914 43.2558 56.8074 42.1518 56.4234 41.3598C57.6474 41.4078 59.1594 41.4318 59.5434 41.4078C59.9754 41.3838 60.0714 41.3118 60.0714 40.9998V36.0318H53.7594V28.3758H69.6234V36.0318ZM65.6634 38.2158L68.2794 36.9678C69.7674 38.4558 71.7114 40.6158 72.6234 42.0318L69.8154 43.4478C68.9994 42.0558 67.1754 39.8238 65.6634 38.2158ZM83.7834 28.6398H84.2634C84.7194 28.0158 85.1514 27.3678 85.5834 26.6718H83.7834V28.6398ZM85.6554 36.6558V35.1438H81.7914V36.6558H85.6554ZM81.7914 40.5198H85.6554V38.8158H81.7914V40.5198ZM97.2954 22.9038L99.3594 24.1998C98.4954 26.5038 97.4394 29.2158 96.4554 31.3278C98.4954 33.4638 98.9034 35.3598 98.9034 36.8958C98.9034 38.6958 98.5194 39.8718 97.5594 40.4958C97.1274 40.8318 96.5274 41.0478 95.8794 41.1438C95.3274 41.2158 94.5354 41.2158 93.7914 41.1678C93.7674 40.3998 93.5034 39.1758 93.0714 38.4078C93.6474 38.4558 94.1514 38.4558 94.5834 38.4558C94.9434 38.4558 95.3034 38.3838 95.5434 38.2398C95.9994 37.9758 96.1674 37.3998 96.1674 36.6078C96.1674 35.2878 95.6154 33.5358 93.6714 31.6878C94.3914 29.9598 95.2074 27.5358 95.7834 25.6878H92.7594V44.0718H89.9514V23.5278C89.2314 25.3518 88.3914 27.0798 87.3834 28.6398H89.1594V31.1358H85.5834C85.0794 31.7598 84.5754 32.3118 84.0474 32.8878H88.3674V43.7118H85.6554V42.7998H81.7914V44.0238H79.1994V36.7518C78.7914 37.0158 78.3834 37.2558 77.9994 37.4718C77.6874 36.8718 76.8714 35.6718 76.3434 35.0958C78.4794 34.0638 80.3994 32.7438 82.0794 31.1358H76.9674V28.6398H81.1434V26.6718H77.9994V24.2238H81.1434V21.8958H83.7834V24.2238H86.2554V25.4478C86.7114 24.6078 87.0714 23.6958 87.4314 22.7598L89.9514 23.4558V22.9998H96.8634L97.2954 22.9038ZM125.399 27.4878H115.823V30.0078H123.383V38.1198C123.383 39.4878 123.095 40.3038 122.111 40.7358C121.103 41.1678 119.735 41.2158 117.863 41.2158C117.743 40.3998 117.311 39.1758 116.903 38.4078C118.103 38.4558 119.519 38.4558 119.903 38.4558C120.287 38.4558 120.407 38.3358 120.407 38.0718V32.7918H115.823V44.1198H112.847V32.7918H108.647V41.2158H105.767V30.0078H112.847V27.4878H103.511V24.7038H112.823V21.5838H115.871V24.7038H125.399V27.4878ZM136.775 28.4958L139.559 28.8558C139.103 31.4478 138.455 33.7758 137.591 35.8398C138.647 37.2318 139.511 38.5758 140.063 39.7278L137.783 41.6718C137.399 40.8078 136.847 39.7998 136.151 38.7198C134.879 40.8318 133.247 42.5598 131.231 43.9038C130.895 43.3278 129.911 42.1998 129.311 41.6718C131.543 40.3758 133.199 38.5278 134.423 36.2238C133.151 34.5198 131.735 32.8158 130.415 31.3518L132.455 29.7438C133.487 30.8478 134.567 32.0718 135.623 33.3438C136.127 31.8558 136.511 30.2478 136.775 28.4958ZM140.303 32.7438L142.583 31.6398C143.711 33.2238 144.863 35.2878 145.247 36.7038L142.775 37.9758C142.415 36.5598 141.383 34.3758 140.303 32.7438ZM151.943 27.0078V29.7438H149.375V40.5438C149.375 42.1518 149.087 42.9918 148.175 43.4478C147.263 43.9518 145.847 44.0718 143.855 44.0718C143.759 43.2318 143.351 41.8638 142.943 40.9998C144.287 41.0718 145.583 41.0478 145.991 41.0478C146.423 41.0478 146.567 40.9278 146.567 40.5438V29.7438H140.543V28.0158H129.983V25.3758H134.159V21.7038H136.895V25.3758H141.335V27.0078H146.567V21.6798H149.375V27.0078H151.943ZM160.775 27.1758V30.5118C160.775 34.3758 160.415 40.3038 158.255 44.0478C157.727 43.5678 156.455 42.7518 155.783 42.4398C157.751 39.0078 157.919 33.9678 157.919 30.5118V24.4638H166.463V21.7038H169.439V24.4638H178.103V27.1758H160.775ZM173.375 30.7278L171.311 32.8638C170.159 31.7358 167.639 30.1278 165.671 29.1198L167.567 27.2478C169.487 28.1598 172.079 29.5998 173.375 30.7278ZM162.887 42.0078L160.343 40.8798C161.351 39.0558 161.855 36.2718 162.095 33.6078L164.663 34.1598C164.399 36.9198 163.967 40.0878 162.887 42.0078ZM169.103 41.0958H171.047C171.767 41.0958 171.911 40.5438 172.007 37.2318C172.607 37.7358 173.783 38.1918 174.527 38.3838C174.263 42.4878 173.543 43.6398 171.311 43.6398H168.647C166.103 43.6398 165.503 42.7998 165.503 40.1358V31.7598H168.335V40.1118C168.335 40.9758 168.431 41.0958 169.103 41.0958ZM172.967 33.9678L175.511 32.9838C176.927 35.4798 178.319 38.6478 178.703 40.8318L175.895 41.9838C175.583 39.8478 174.335 36.5118 172.967 33.9678Z" fill="white"/>
<path d="M185 34L200 16.6795V51.3205L185 34Z" fill="white"/>
<mask id="path-4-inside-1_2376_1854" fill="white">
<path d="M193 0H570V69H193V0Z"/>
</mask>
<path d="M193 0H570V69H193V0Z" fill="white"/>
<path d="M570 0H573V-3H570V0ZM570 69V72H573V69H570ZM193 0V3H570V0V-3H193V0ZM570 0H567V69H570H573V0H570ZM570 69V66H193V69V72H570V69Z" fill="#936B2E" mask="url(#path-4-inside-1_2376_1854)"/>
<path d="M229.432 26.38H217.48V29.668H229.432V26.38ZM229.648 32.452L230.848 30.964C230.512 31.036 230.2 31.084 229.912 31.084H229.432V30.364H217.48V31.972V32.452H229.648ZM221.632 33.148H217.48C217.456 34.084 217.408 35.068 217.312 36.076C218.128 36.1 219.304 36.1 220.744 36.076C221.056 35.164 221.392 34.084 221.632 33.148ZM218.8 39.052L217.312 36.1C216.904 39.796 215.68 43.732 211.96 46.588L211.72 46.42C214.36 42.124 214.6 36.796 214.6 31.972V24.532L217.912 25.684H229.192L230.488 24.268L233.248 26.356C233.08 26.548 232.768 26.74 232.264 26.836V30.484C232.24 30.556 231.856 30.724 231.328 30.868C231.832 31.228 232.96 32.092 233.752 32.764C233.68 33.028 233.416 33.148 233.08 33.148H225.064C224.176 34.132 223.12 35.188 222.136 36.076C224.104 36.052 226.432 36.004 228.856 35.956C228.16 35.284 227.392 34.684 226.696 34.228L226.888 34.012C234.712 34.228 233.632 39.676 230.824 38.452C230.512 37.804 230.008 37.132 229.432 36.508C227.128 37.06 223.96 37.684 219.448 38.524C219.304 38.836 219.04 39.004 218.8 39.052ZM230.176 44.98L231.64 43.036C231.64 43.036 233.248 44.38 234.208 45.292C234.16 45.556 233.896 45.676 233.56 45.676H215.8L215.584 44.98H223.408V41.644H217.576L217.384 40.972H223.408V38.14L226.912 38.452C226.864 38.764 226.696 38.98 226.12 39.076V40.972H228.928L230.344 39.244C230.344 39.244 231.928 40.42 232.888 41.284C232.816 41.524 232.552 41.644 232.216 41.644H226.12V44.98H230.176ZM244.384 30.724V33.292C249.832 35.164 247.456 39.004 245.512 37.252C245.44 36.148 244.912 34.876 244.384 33.892V45.82C244.384 46.084 243.232 46.636 242.2 46.636H241.648V36.796C240.688 38.356 239.512 39.748 238.144 40.996L237.856 40.732C239.632 37.996 240.736 34.276 241.336 30.724H238.528L238.336 30.028H241.648V24.172L245.272 24.532C245.224 24.868 245.032 25.108 244.384 25.204V30.028H244.72L245.944 28.18C245.944 28.18 247.288 29.5 248.032 30.34C247.96 30.604 247.72 30.724 247.408 30.724H244.384ZM250.984 35.116V42.652C252.184 42.436 253.48 42.196 254.752 41.932C253.816 40.108 253.192 37.852 252.736 35.116H250.984ZM256.264 26.548H250.984V30.1H256.264V26.548ZM250.984 30.772V34.444H256.264V30.772H250.984ZM256.264 35.116H253.168C253.648 36.628 254.344 37.972 255.232 39.148C256.24 38.092 257.392 36.628 257.968 35.788C257.584 35.932 257.104 36.028 256.72 36.028H256.264V35.116ZM258.16 35.716L260.848 37.948C260.68 38.14 260.392 38.188 259.984 38.044C259.096 38.476 257.32 39.22 255.64 39.676C257.104 41.452 258.976 42.772 261.112 43.468L261.064 43.732C260.032 44.02 259.192 44.956 258.832 46.372C257.152 45.316 255.88 43.972 254.92 42.22C253.384 43.156 251.104 44.452 247.768 46.108C247.648 46.42 247.408 46.636 247.144 46.708L245.632 43.54C246.232 43.468 247.144 43.324 248.272 43.132V24.652L251.104 25.852H256.024L257.296 24.436L259.936 26.5C259.768 26.692 259.456 26.884 258.976 26.98V35.212C258.952 35.332 258.616 35.524 258.16 35.716ZM278.464 35.38C278.464 36.844 277.264 38.044 275.8 38.044C274.336 38.044 273.136 36.844 273.136 35.38C273.136 33.916 274.336 32.716 275.8 32.716C277.264 32.716 278.464 33.916 278.464 35.38ZM300.376 28.924H297.4C296.872 30.22 296.272 31.42 295.624 32.5C298.024 33.292 298.864 34.588 298.864 35.572C299.584 33.46 300.064 31.204 300.376 28.924ZM301.672 26.644L304.336 29.044C304.144 29.308 303.928 29.428 303.328 29.476C302.176 36.532 299.536 43.156 291.064 46.612L290.848 46.372C294.568 43.948 296.992 40.516 298.504 36.58C298.024 37.108 297.184 37.252 296.344 36.58C296.2 35.524 295.672 34.372 295.048 33.388C293.896 35.068 292.576 36.46 291.064 37.612L290.776 37.42C292.96 34.204 294.832 29.308 295.552 24.148L299.44 25.108C299.344 25.396 299.08 25.636 298.528 25.636C298.264 26.548 297.976 27.412 297.664 28.252H300.16L301.672 26.644ZM308.464 25.516V35.476C310.144 36.532 312.04 37.276 314.008 37.708L313.96 37.972C312.856 38.26 311.992 39.22 311.656 40.636C310.456 40.132 309.4 39.508 308.464 38.764V45.748C308.464 46.012 307.24 46.588 306.16 46.588H305.584V35.524C304.696 34.06 304 32.38 303.472 30.388L303.76 30.268C304.216 31.276 304.84 32.212 305.584 33.052V24.46L309.328 24.844C309.28 25.18 309.112 25.42 308.464 25.516ZM322.216 36.916H325.12V33.676H322.216V36.916ZM324.832 26.452H321.184V29.092V29.548H324.832V26.452ZM335.56 45.22L337.096 43.252C337.096 43.252 338.824 44.596 339.856 45.532C339.784 45.796 339.544 45.916 339.184 45.916H317.56L317.344 45.22H327.088V41.884H319.96L319.768 41.236H327.088V38.38C326.656 38.572 326.008 38.764 325.528 38.764H325.12V37.612H322.216V38.716C322.216 38.884 321.448 39.436 320.2 39.436H319.768V35.764C319.216 36.748 318.448 37.684 317.368 38.452L317.128 38.236C318.664 35.476 318.736 31.972 318.736 29.092V24.7L321.592 25.756H324.592L325.744 24.508L328.24 26.356C328.096 26.548 327.76 26.74 327.304 26.836V30.652C327.28 30.82 326.032 31.276 325.24 31.276H324.832V30.22H321.16C321.136 30.892 321.064 31.636 320.944 32.38L322.528 33.004H324.88L326.032 31.756L328.48 33.604C328.36 33.772 328.048 33.964 327.592 34.036V38.068C327.592 38.14 327.376 38.26 327.112 38.38L330.856 38.692C330.808 39.028 330.616 39.268 329.968 39.388V41.236H333.52L335.008 39.316C335.008 39.316 336.688 40.612 337.696 41.5C337.624 41.764 337.384 41.884 337.048 41.884H329.968V45.22H335.56ZM336.376 31.204L337.624 29.62C337.624 29.62 339.088 30.724 340 31.516C339.928 31.78 339.688 31.9 339.352 31.9H334.768V34.444H336.016L337.288 32.788C337.288 32.788 338.728 33.94 339.64 34.756C339.568 35.02 339.304 35.14 338.968 35.14H334.768V38.764C334.744 38.884 333.952 39.316 332.584 39.316H332.104V35.14H328.408L328.216 34.444H332.104V31.9H327.928L327.736 31.204H334.192C334.432 30.076 334.696 28.564 334.84 27.46H330.328C334.624 29.356 331.984 32.452 330.4 30.652C330.52 29.572 330.232 28.324 329.896 27.508L329.992 27.46H328.384L328.192 26.764H332.104V24.1L335.584 24.388C335.536 24.7 335.344 24.916 334.768 25.036V26.764H335.872L337.144 25.18C337.144 25.18 338.56 26.284 339.472 27.076C339.4 27.34 339.136 27.46 338.8 27.46H335.08L338.152 28.108C338.08 28.396 337.816 28.612 337.312 28.636C336.712 29.404 335.752 30.364 334.864 31.204H336.376ZM354.112 30.652C354.112 29.86 353.776 29.14 353.368 28.588C351.808 29.02 350.296 29.908 349.144 31.132C347.752 32.668 346.984 34.3 346.984 36.268C346.984 38.164 347.8 39.94 348.808 39.94C350.152 39.94 352.264 36.628 353.032 34.972C353.656 33.58 354.112 31.924 354.112 30.652ZM353.872 44.932L353.776 44.476C359.848 43.036 362.128 39.7 362.128 35.548C362.128 31.132 359.296 28.3 355.408 28.3C355.096 28.3 354.76 28.324 354.448 28.372C355.168 29.116 356.032 30.292 356.032 31.42C356.032 32.644 355.792 34.228 355.24 35.692C354.16 38.74 351.472 43.108 348.544 43.108C346.624 43.108 344.848 40.156 344.848 37.036C344.848 34.804 345.952 31.948 348.376 29.908C350.32 28.228 352.744 27.34 355.672 27.34C361.192 27.34 365.104 31.18 365.104 36.172C365.104 40.708 361.936 44.596 353.872 44.932ZM374.368 40.612H374.704C375.568 43.732 374.296 45.748 372.904 46.42C372.016 46.876 370.864 46.636 370.552 45.748C370.312 44.908 370.84 44.284 371.584 43.924C372.784 43.492 374.2 42.244 374.368 40.612ZM377.248 40.948L377.536 40.852C382.456 43.948 379.528 48.028 377.68 45.796C377.92 44.188 377.656 42.316 377.248 40.948ZM381.472 40.972L381.712 40.828C388.024 43.084 385.672 47.908 383.368 45.916C383.296 44.236 382.384 42.268 381.472 40.972ZM386.032 40.756L386.272 40.588C394.504 42.22 392.752 48.028 389.968 46.3C389.368 44.356 387.616 42.124 386.032 40.756ZM386.104 39.268V34.276H384.376V39.268H386.104ZM376.144 34.276V39.268H377.8V34.276H376.144ZM376.144 28.66V33.604H377.8V28.66H376.144ZM381.928 34.276H380.176V39.268H381.928V34.276ZM381.928 28.66H380.176V33.604H381.928V28.66ZM386.104 28.66H384.376V33.604H386.104V28.66ZM392.152 34.276H388.624V39.268H389.008L390.352 37.228C390.352 37.228 391.84 38.62 392.68 39.556C392.608 39.82 392.368 39.94 392.032 39.94H370.528L370.336 39.268H373.72V34.276H370.288L370.096 33.604H373.72V30.316C372.688 31.156 371.608 31.876 370.504 32.428L370.264 32.212C371.92 30.34 373.72 27.244 374.824 24.1L378.616 25.588C378.496 25.876 378.208 26.044 377.632 25.996C377.176 26.692 376.672 27.34 376.168 27.94L376.24 27.964H387.832L389.296 25.996C389.296 25.996 390.928 27.34 391.912 28.276C391.84 28.54 391.6 28.66 391.264 28.66H388.624V33.604H389.008L390.376 31.684C390.376 31.684 391.912 33.004 392.8 33.892C392.728 34.156 392.488 34.276 392.152 34.276ZM407.824 26.404L408.016 26.26C414.496 27.364 412.432 32.068 410.056 30.364C409.792 28.996 408.76 27.412 407.824 26.404ZM407.368 32.164L407.56 31.996C414.208 32.716 412.384 37.612 409.936 36.028C409.624 34.66 408.472 33.1 407.368 32.164ZM404.248 31.876L403.864 31.708C404.176 30.316 404.56 28.084 404.848 26.188L408.04 27.148C407.944 27.436 407.656 27.652 407.128 27.676C406.264 29.116 405.184 30.724 404.248 31.876ZM396.664 26.356L396.928 26.26C402.16 29.14 399.616 33.268 397.696 31.252C397.744 29.62 397.192 27.748 396.664 26.356ZM403.312 34.204V35.476C409.768 36.82 407.608 41.5 405.28 39.772C405.088 38.404 404.2 36.892 403.312 35.836V45.724C403.312 46.012 402.208 46.636 401.248 46.636H400.744V38.788C399.64 40.396 398.272 41.812 396.688 43.036L396.424 42.748C398.128 40.468 399.28 37.252 399.928 34.204H396.64L396.448 33.508H400.744V24.148L404.2 24.484C404.152 24.844 403.984 25.084 403.312 25.18V33.508H404.104L405.4 31.78C405.4 31.78 406.936 32.98 407.848 33.82C407.776 34.084 407.536 34.204 407.2 34.204H403.312ZM416.152 38.596L417.184 36.508C417.184 36.508 418.672 37.492 419.632 38.188C419.632 38.452 419.392 38.644 419.104 38.692L416.08 39.292V45.652C416.08 45.94 414.904 46.612 413.872 46.612H413.344V39.844L407.08 41.116L406.768 40.492L413.344 39.172V24.124L416.92 24.484C416.872 24.82 416.728 25.084 416.08 25.18V38.62L416.152 38.596ZM426.688 40.468H427C428.056 43.66 426.832 45.724 425.44 46.42C424.552 46.876 423.376 46.66 423.088 45.748C422.824 44.884 423.376 44.236 424.096 43.876C425.296 43.444 426.616 42.148 426.688 40.468ZM430.168 40.756L430.456 40.66C435.592 43.852 432.352 48.1 430.384 45.676C430.696 44.02 430.528 42.148 430.168 40.756ZM434.416 40.708L434.656 40.588C441.424 42.772 438.928 47.908 436.456 45.844C436.336 44.092 435.4 42.076 434.416 40.708ZM429.328 37.9H439.216V32.932H429.328V37.9ZM439.72 40.012H439.216V38.596H429.328V39.388C429.328 39.628 428.056 40.276 426.88 40.276H426.472V31.06L429.52 32.26H432.544V24.076L436.552 24.364C436.504 24.772 436.288 25.036 435.52 25.18V28.036H440.224L441.76 25.948C441.76 25.948 443.464 27.388 444.496 28.324C444.424 28.588 444.16 28.708 443.8 28.708H435.52V32.26H438.976L440.32 30.796L443.128 32.908C442.96 33.1 442.624 33.316 442.144 33.436V39.244C442.12 39.412 440.704 40.012 439.72 40.012ZM439.336 40.612L439.552 40.444C447.568 42.364 445.6 48.076 442.84 46.204C442.336 44.26 440.728 42.028 439.336 40.612ZM460.984 38.596H463.024C463.072 38.044 463.096 37.468 463.096 36.868V34.588H460.984V38.596ZM467.92 34.588H465.688V36.844C465.688 37.444 465.664 38.02 465.592 38.596H467.92V34.588ZM467.92 39.292H465.688C466.84 41.62 469.264 43.156 472.072 43.66V43.924C471.04 44.236 470.296 45.172 470.008 46.636C467.464 45.292 466.12 43.252 465.352 39.916C464.68 42.652 462.64 45.124 456.856 46.636L456.712 46.348C460.936 44.404 462.472 42.052 462.928 39.292H460.984V39.964C460.984 40.132 460.192 40.564 458.92 40.564H458.512V36.604C458.176 37.348 457.24 37.636 456.4 36.844C456.352 35.692 455.872 34.372 455.344 33.388V45.82C455.344 46.06 454.192 46.636 453.16 46.636H452.608V37.084C451.72 38.548 450.64 39.868 449.344 41.044L449.032 40.756C450.784 38.02 451.816 34.372 452.368 30.748H449.752L449.56 30.052H452.608V24.148L456.232 24.508C456.16 24.868 455.992 25.108 455.344 25.204V30.052H455.44L456.664 28.252C456.664 28.252 458.056 29.5 458.848 30.364C458.776 30.628 458.536 30.748 458.2 30.748H455.344V32.836L455.368 32.812C457.264 33.508 458.2 34.444 458.512 35.284V32.836L461.224 33.916H463.096V31.756H460.216L460.024 31.06H465.52L466.696 29.476C466.696 29.476 468.064 30.58 468.856 31.372C468.784 31.636 468.544 31.756 468.208 31.756H465.688V33.916H467.848L469.048 32.548L471.376 34.324C471.232 34.516 470.992 34.66 470.488 34.756V39.628C470.488 39.748 469.648 40.18 468.376 40.18H467.92V39.292ZM462.544 24.076L466.144 25.012C466.072 25.3 465.856 25.444 465.16 25.54C466.696 27.292 469.384 28.684 472.12 29.212L472.096 29.5C471.136 29.908 470.728 30.988 470.584 32.068C468.184 30.7 466.072 28.444 464.872 25.756C463.552 28.42 460.984 30.82 457.696 32.26L457.552 31.996C459.952 30.1 461.896 26.62 462.544 24.076ZM485.008 27.508L485.056 27.484C482.416 27.652 479.656 27.748 477.136 27.748L477.088 27.34C482.608 26.716 489.736 25.276 493.432 24.076L495.976 26.644C495.688 26.884 495.16 26.884 494.416 26.572C491.944 26.932 488.752 27.244 485.392 27.46C491.128 29.188 488.296 33.436 486.088 31.396C486.112 30.028 485.584 28.54 485.008 27.508ZM479.752 27.94L479.968 27.796C486.016 29.164 483.304 33.58 481.048 31.564C481.024 30.292 480.4 28.876 479.752 27.94ZM490.264 36.604H482.608C483.64 38.404 485.2 39.748 487.096 40.78C488.416 39.556 489.496 38.164 490.264 36.604ZM491.992 34.42L494.56 36.82C494.368 37.084 494.128 37.156 493.48 37.204C492.4 38.98 491.032 40.516 489.376 41.812C492.04 42.82 495.136 43.348 498.304 43.612L498.28 43.924C496.984 44.236 496.192 45.22 495.856 46.66C492.496 45.964 489.568 44.956 487.192 43.276C484.24 45.004 480.544 46.132 476.08 46.66L475.96 46.324C479.776 45.364 483.04 43.924 485.632 42.004C484.12 40.588 482.944 38.836 482.104 36.604H479.512L479.296 35.908H490.288L491.992 34.42ZM495.976 30.724L498.544 33.172C498.352 33.388 498.088 33.436 497.608 33.46C496.672 34.204 495.088 35.212 493.912 35.74L493.72 35.572C494.008 34.852 494.344 33.748 494.584 32.884H479.512C479.776 34.684 479.104 35.932 478.192 36.388C477.376 36.868 476.296 36.604 475.984 35.692C475.744 34.828 476.296 34.18 477.064 33.82C477.904 33.34 478.648 32.092 478.456 30.7L478.792 30.676C479.056 31.228 479.248 31.732 479.368 32.212H490.36C491.104 30.7 491.872 28.684 492.304 27.196L496.144 28.468C496.024 28.756 495.76 28.948 495.232 28.9C494.224 29.86 492.664 31.156 491.128 32.212H494.488L495.976 30.724ZM506.968 24.076L510.832 25.252C510.712 25.564 510.424 25.78 509.896 25.756C509.152 27.7 508.288 29.476 507.304 31.06L508.672 31.54C508.6 31.756 508.384 31.924 507.928 32.02V45.844C507.88 46.036 506.728 46.66 505.624 46.66H505.096V34.06C504.232 35.068 503.296 35.956 502.312 36.724L502 36.532C503.992 33.532 505.984 28.78 506.968 24.076ZM510.376 33.46L510.592 33.316C517.936 35.86 515.68 41.284 513.04 39.196C512.728 37.252 511.48 35.02 510.376 33.46ZM521.176 30.484L522.568 28.396C522.568 28.396 524.176 29.836 525.064 30.772C525.016 31.036 524.752 31.156 524.416 31.156H520.936V43.012C520.936 45.076 520.432 46.252 516.736 46.588C516.616 45.604 516.424 44.932 515.944 44.476C515.392 44.02 514.696 43.684 513.088 43.42V43.084C513.088 43.084 516.64 43.3 517.336 43.3C517.84 43.3 517.984 43.156 517.984 42.796V31.156H509.2L509.008 30.484H517.984V24.436L521.8 24.796C521.752 25.156 521.536 25.372 520.936 25.444V30.484H521.176ZM541.264 36.508H546.664V30.1H541.264V36.508ZM532.912 36.508H538.264V30.1H532.912V36.508ZM547.792 27.916L550.648 30.076C550.48 30.268 550.168 30.508 549.664 30.604V38.5C549.64 38.692 548.152 39.22 547.168 39.22H546.664V37.204H541.264V45.604C541.264 45.916 539.968 46.636 538.816 46.636H538.264V37.204H532.912V38.62C532.912 38.908 531.592 39.58 530.368 39.58H529.936V28.156L533.128 29.404H538.264V24.148L542.152 24.508C542.104 24.844 541.912 25.108 541.264 25.204V29.404H546.448L547.792 27.916Z" fill="#0B1820"/>
</svg>
